<?xml version="1.0" standalone="no"?>
<!DOCTYPE svg PUBLIC "-//W3C//DTD SVG 20010904//EN"
 "http://www.w3.org/TR/2001/REC-SVG-20010904/DTD/svg10.dtd">
<svg version="1.0" xmlns="http://www.w3.org/2000/svg"
 width="300.000000pt" height="198.000000pt" viewBox="0 0 300.000000 198.000000"
 preserveAspectRatio="xMidYMid meet">
<metadata>
Created by potrace 1.10, written by Peter Selinger 2001-2011
</metadata>
<g transform="translate(0.000000,198.000000) scale(0.100000,-0.100000)"
fill="#000000" stroke="none">
<path d="M503 1717 c1 -5 13 -14 25 -18 18 -7 22 -5 22 10 0 13 -7 19 -25 19
-14 0 -24 -5 -22 -11z"/>
<path d="M1285 1253 c0 -82 3 -95 23 -92 4 1 104 0 222 -1 l216 -2 -1 89 0 88
-230 3 -230 2 0 -87z m130 57 c7 5 15 7 18 3 9 -8 217 -12 217 -4 0 4 9 7 19
7 11 0 17 -5 14 -10 -4 -5 1 -7 10 -3 19 7 25 -11 23 -68 -1 -22 3 -43 8 -47
6 -4 -90 -7 -214 -7 -124 0 -218 3 -210 7 9 4 15 21 15 44 0 21 3 38 7 38 4 0
5 7 1 16 -8 23 14 33 50 23 19 -5 35 -5 42 1z"/>
<path d="M829 1134 c-1 -22 -1 -43 0 -48 1 -5 -25 -6 -58 -3 l-60 5 -3 -31
c-3 -31 -5 -32 -54 -35 -50 -3 -52 -4 -58 -35 -11 -67 -86 -584 -89 -616 -1
-19 -9 -37 -16 -39 -10 -3 -12 1 -9 16 4 15 2 19 -8 15 -8 -3 -20 0 -28 6 -11
9 -15 8 -21 -6 -6 -17 -7 -17 -20 0 -8 12 -15 14 -20 7 -3 -5 -11 -8 -16 -4
-6 3 -19 -2 -30 -12 -18 -16 -20 -16 -41 2 -13 10 -27 25 -31 32 -5 7 -16 10
-26 7 -11 -3 -18 0 -18 7 0 9 12 12 38 10 25 -3 36 -8 33 -17 -7 -16 14 -23
46 -15 l25 6 -28 7 c-22 6 -27 12 -22 27 5 17 1 19 -54 18 -51 -1 -61 -4 -71
-24 -7 -12 -9 -28 -5 -35 5 -8 4 -10 -3 -5 -6 4 -26 -7 -43 -24 -18 -16 -37
-30 -42 -30 -6 0 -7 -3 -4 -7 4 -3 2 -12 -5 -20 -16 -19 -1 -30 22 -15 11 7
28 12 37 13 14 0 13 2 -5 9 -12 5 -22 14 -22 20 0 12 10 13 30 1 21 -14 34 -1
14 13 -16 12 -15 13 5 19 11 3 19 2 17 -2 -3 -4 -1 -13 5 -21 6 -10 9 -11 9
-2 0 6 8 12 18 13 14 0 14 2 -3 9 -22 9 -21 9 13 16 18 3 25 -1 29 -16 3 -11
10 -20 15 -20 6 0 8 -7 5 -14 -7 -17 22 -30 47 -20 9 3 16 1 16 -6 0 -6 5 -8
12 -4 8 5 6 11 -7 20 -15 11 -16 16 -5 29 7 8 17 15 23 15 6 0 2 -7 -9 -16
-15 -12 -16 -15 -2 -10 9 3 19 0 22 -7 3 -8 9 -7 19 6 15 18 33 24 22 7 -8
-13 16 -49 31 -43 14 5 16 -47 2 -64 -6 -8 -7 -13 -1 -13 13 0 13 -32 0 -47
-5 -7 -6 -13 -3 -13 4 0 0 -8 -10 -17 -15 -16 -15 -17 2 -24 11 -4 22 -4 26 0
6 6 17 70 18 109 0 19 5 22 45 22 29 0 45 -4 45 -12 0 -10 3 -9 9 0 5 8 24 18
42 22 20 4 -1 6 -53 2 l-86 -5 7 34 c5 27 12 34 31 34 25 1 52 -23 44 -37 -3
-5 -12 -8 -20 -8 -8 0 -12 5 -9 10 9 15 -4 12 -21 -5 -14 -13 -10 -15 30 -15
48 0 50 1 60 42 5 24 3 27 -21 26 -49 -1 -67 2 -59 9 4 4 15 8 23 8 10 0 17 9
18 23 2 25 1 26 -26 12 -22 -12 -23 -10 -7 27 7 15 12 35 12 43 1 24 48 24 74
0 16 -16 22 -17 22 -6 0 8 6 17 13 19 9 4 9 6 -1 6 -21 1 -3 21 19 21 10 0 19
4 19 9 0 5 -8 8 -17 7 -11 0 -17 5 -14 14 2 8 4 30 3 48 0 30 10 38 41 33 5
-1 6 3 3 8 -4 5 -1 11 5 13 6 2 9 17 7 33 l-3 30 -15 -32 c-9 -21 -17 -28 -22
-20 -11 18 -30 -5 -33 -40 -7 -70 -19 -137 -22 -125 -3 7 -21 12 -44 12 -21 0
-39 5 -39 10 0 6 5 10 10 10 7 0 7 6 0 20 -10 19 -8 20 35 20 28 0 44 4 40 10
-3 6 -21 10 -40 10 -28 0 -32 3 -28 20 3 11 9 20 13 20 4 0 7 18 6 41 l-2 41
43 -4 c31 -2 43 1 43 11 0 9 -7 11 -24 7 -13 -3 -35 -2 -48 3 -13 6 -17 10
-10 10 7 1 12 9 10 19 -2 14 5 18 40 20 56 4 54 22 -3 22 -35 0 -43 3 -39 15
4 8 11 12 17 8 5 -3 7 -1 3 5 -3 6 -1 14 5 18 8 5 8 8 -1 14 -7 4 -9 17 -4 34
5 22 11 27 30 23 12 -2 29 0 36 4 8 6 -1 9 -24 9 -33 0 -38 3 -38 24 0 25 20
39 44 30 18 -7 52 26 36 36 -21 13 41 22 135 21 49 -1 91 -4 93 -6 2 -2 0 -29
-5 -59 l-10 -56 35 0 c35 0 35 0 29 40 -3 24 -1 41 7 44 7 3 6 5 -2 5 -20 1
12 31 33 31 15 0 17 -9 13 -59 l-4 -59 33 0 c22 0 33 5 33 15 0 8 -4 11 -10 8
-5 -3 -10 0 -10 9 0 8 6 17 13 19 7 3 5 6 -5 6 -12 1 -18 -6 -18 -20 0 -11 -4
-18 -9 -15 -4 3 -6 17 -3 31 3 17 11 25 26 26 19 1 19 2 -4 9 l-25 8 28 1 c15
1 27 6 27 11 0 6 10 10 21 10 21 0 22 -3 16 -63 l-6 -63 30 4 c28 4 52 22 30
22 -17 0 -13 69 4 87 18 18 60 11 69 -12 3 -9 -3 -24 -14 -35 -21 -21 -27 -35
-11 -26 5 3 11 -1 15 -9 3 -8 1 -15 -5 -15 -6 0 -7 -4 -4 -10 11 -17 35 -11
35 10 0 18 9 19 245 19 237 1 245 0 245 -19 0 -11 5 -20 11 -20 5 0 7 5 3 12
-5 7 0 9 14 6 18 -5 19 -4 9 13 -6 10 -14 19 -18 19 -3 0 -6 7 -6 15 0 8 5 15
10 15 5 0 3 8 -4 17 -12 14 -12 16 1 11 8 -3 21 1 28 8 7 8 11 14 10 15 -2 0
-17 3 -34 5 l-32 5 6 -46 5 -46 -247 3 -246 3 0 43 0 42 -222 1 c-194 1 -364
11 -318 19 8 1 21 2 28 1 6 -1 12 3 12 9 0 5 5 10 11 10 5 0 7 -4 4 -10 -3 -5
-1 -10 4 -10 6 0 11 6 11 13 0 8 4 7 10 -3 6 -10 10 -11 10 -2 0 6 7 12 15 12
8 0 15 -5 15 -12 0 -6 3 -8 6 -5 4 4 1 13 -5 21 -7 8 -8 16 -4 19 12 8 377 9
397 1 12 -5 14 -10 5 -20 -6 -7 -8 -18 -4 -24 11 -18 25 -11 25 15 l0 25 240
0 240 0 0 -25 c0 -27 22 -33 50 -15 12 8 10 10 -8 10 -15 0 -22 5 -19 13 3 9
56 12 212 14 l209 2 1 38 1 38 -211 0 c-115 -1 -216 -2 -222 -3 -7 -1 -13 -11
-13 -22 0 -14 7 -20 22 -20 21 0 21 0 2 16 -17 14 -17 15 -1 10 10 -3 37 -6
58 -6 24 0 38 -4 34 -10 -3 -5 1 -10 10 -10 9 0 14 4 10 9 -7 12 28 17 74 12
23 -2 29 -6 20 -12 -10 -6 -6 -8 13 -7 15 1 24 6 22 10 -9 15 95 12 111 -3 5
-5 16 -9 25 -9 13 0 13 1 0 10 -8 5 -10 10 -5 10 13 0 35 -21 35 -33 0 -11
-1117 -3 -1128 8 -4 3 0 10 7 14 7 5 9 11 5 13 -10 5 6 1 34 -8 14 -5 15 -4 2
5 -12 9 -11 11 8 11 15 0 21 -4 16 -12 -5 -7 -3 -8 7 -3 18 12 49 14 49 3 0
-4 8 -8 18 -8 14 0 15 2 2 10 -12 8 -11 10 7 10 12 0 25 -5 29 -12 5 -7 2 -8
-7 -3 -8 5 -11 4 -7 0 5 -5 19 -10 33 -11 21 -2 25 2 25 22 l0 24 -209 0
c-115 0 -216 3 -225 6 -13 5 -16 -2 -17 -32z m211 -14 c0 -19 -7 -20 -101 -20
-64 0 -98 4 -94 10 3 6 44 10 91 10 54 0 83 4 79 10 -3 6 1 10 9 10 9 0 16 -9
16 -20z m-365 -140 c4 -6 -7 -10 -24 -10 -17 0 -31 5 -31 10 0 6 11 10 24 10
14 0 28 -4 31 -10z m275 -24 c0 -19 -5 -38 -10 -41 -7 -4 -10 8 -9 34 3 50 19
55 19 7z m210 -6 c0 -22 -5 -40 -10 -40 -6 0 -10 17 -8 40 1 22 6 40 10 40 4
0 8 -18 8 -40z"/>
<path d="M2223 1073 c-25 -5 -27 -11 -13 -33 6 -10 10 -11 10 -2 0 6 10 12 23
12 18 0 19 -2 7 -10 -11 -7 -7 -10 20 -11 89 -4 -97 -18 -218 -17 -73 0 -136
-3 -140 -7 -4 -5 1 -5 11 -2 13 5 17 1 17 -18 0 -14 5 -25 12 -25 8 0 9 -3 2
-10 -6 -6 -9 -24 -6 -40 4 -26 9 -30 34 -30 l31 0 -7 60 c-7 59 -7 60 19 60
23 0 25 -3 26 -50 2 -65 3 -70 12 -70 4 0 18 0 31 0 23 0 24 2 19 60 l-6 60
52 0 c44 0 51 -3 51 -20 0 -11 5 -20 11 -20 6 0 8 9 4 20 -5 17 -2 20 22 21
47 2 68 -2 78 -15 6 -7 15 -11 21 -9 6 2 22 -1 35 -6 22 -9 21 -10 -13 -10
-21 -1 -38 -6 -38 -12 0 -5 4 -8 9 -5 11 7 74 -4 67 -12 -3 -2 -1 -13 5 -23 9
-17 6 -19 -36 -19 -26 0 -44 -4 -41 -9 4 -5 18 -8 33 -6 43 4 51 -3 48 -46 -2
-25 3 -46 12 -55 13 -12 9 -14 -31 -14 -25 0 -46 -4 -46 -8 0 -5 19 -8 43 -8
36 1 42 -2 39 -18 -2 -10 2 -23 10 -27 8 -6 -5 -9 -34 -9 -27 0 -48 -4 -48 -9
0 -5 18 -7 40 -4 37 5 40 4 39 -18 -2 -27 3 -52 12 -59 4 -3 9 -14 13 -25 5
-18 1 -21 -24 -23 -45 -3 -73 14 -60 38 7 13 7 21 0 25 -6 4 -10 3 -9 -2 5
-27 -4 -32 -61 -30 -33 1 -60 -1 -60 -5 0 -5 -13 -8 -30 -8 -16 0 -30 -4 -30
-10 0 -5 9 -10 19 -10 41 0 27 -15 -15 -16 -24 -1 -44 2 -44 7 0 5 8 9 18 9
11 0 13 3 6 8 -7 4 -14 16 -17 27 -4 18 -5 18 -6 -2 -1 -14 -7 -23 -17 -23
-10 0 -14 -6 -10 -15 5 -13 -18 -15 -172 -15 l-177 0 -1 40 -1 39 51 4 51 3
-52 2 c-29 1 -53 7 -53 12 0 6 -3 9 -7 9 -19 -3 -33 2 -33 11 0 6 9 10 20 10
11 0 29 9 39 19 11 11 23 16 27 13 4 -4 4 -1 0 6 -4 6 -13 12 -20 12 -19 0
-16 30 3 31 10 0 12 2 4 6 -24 9 -13 24 15 21 29 -3 29 -4 31 -83 1 -50 1 -50
33 -49 l33 1 -4 67 c-3 66 -3 68 20 64 22 -3 24 -8 27 -65 l3 -63 33 0 34 0
-5 68 c-3 37 -7 68 -8 69 -1 2 -58 4 -127 5 l-126 3 4 -57 5 -58 -56 0 c-42 0
-55 -3 -55 -15 0 -8 -9 -15 -19 -15 -10 0 -21 -7 -24 -15 -9 -21 10 -29 21 -9
7 13 13 14 28 6 17 -10 17 -11 2 -12 -9 0 -19 -4 -22 -9 -3 -5 10 -9 28 -8 19
0 33 4 30 9 -3 4 2 5 11 2 8 -4 23 0 33 7 15 13 16 12 3 -3 -9 -13 -10 -18 -2
-18 23 0 1 -17 -29 -23 -20 -4 -30 -12 -30 -24 1 -17 1 -17 11 0 13 22 29 22
29 0 0 -15 2 -14 15 3 14 18 14 17 5 -8 -5 -16 -7 -28 -4 -28 4 0 0 -8 -7 -17
-10 -11 -10 -14 -1 -9 11 7 17 -5 13 -27 -1 -5 4 -5 10 -1 8 4 9 3 5 -5 -4 -6
-16 -9 -27 -6 -11 4 -19 2 -19 -4 0 -6 3 -10 8 -10 22 4 42 -2 37 -11 -4 -6
-11 -7 -17 -4 -7 4 -8 2 -4 -5 6 -9 11 -9 22 0 12 10 16 8 21 -9 3 -15 13 -22
29 -22 12 0 26 -4 29 -10 3 -5 0 -10 -8 -10 -8 0 -19 -10 -25 -22 -10 -19 -11
-20 -9 -4 1 10 -3 21 -8 23 -7 2 -9 -12 -7 -36 3 -32 0 -40 -15 -44 -16 -4
-16 -5 0 -6 9 0 17 -5 17 -11 0 -5 15 -9 33 -9 19 1 24 3 12 6 -46 10 -49 13
-29 29 10 9 13 13 7 9 -17 -8 -16 5 3 30 10 14 28 20 59 21 27 1 42 -2 39 -8
-3 -5 3 -4 14 3 29 18 38 5 18 -25 -11 -18 -13 -27 -4 -32 7 -4 8 -3 4 4 -5 8
4 12 28 12 19 0 38 5 41 11 5 7 13 4 26 -7 10 -9 17 -20 15 -23 -2 -3 1 -17 8
-30 13 -23 13 -23 14 8 0 17 -3 31 -8 31 -9 0 -23 39 -21 58 1 6 -3 12 -9 12
-5 0 -10 -6 -10 -14 0 -8 -13 -16 -30 -18 -30 -5 -41 6 -17 16 8 3 6 9 -7 20
-11 9 -22 13 -25 8 -3 -4 -25 -7 -49 -7 -32 0 -44 4 -48 18 -3 9 -10 15 -15
11 -6 -3 -13 4 -16 15 -4 16 -11 20 -24 16 -19 -6 -24 3 -20 33 1 8 -4 24 -13
36 -15 23 -14 23 37 22 l52 -1 3 -68 c2 -51 6 -67 17 -67 8 0 15 7 15 15 0 8
5 15 10 15 6 0 10 -7 10 -15 0 -8 7 -15 16 -15 8 0 13 4 9 10 -3 5 -8 36 -12
70 -5 59 -5 60 20 60 23 0 25 -4 29 -48 3 -43 1 -48 -14 -44 -13 3 -18 -2 -18
-17 0 -12 6 -21 15 -21 8 0 15 5 15 11 0 5 5 7 10 4 6 -4 7 -12 4 -18 -4 -7
-4 -9 1 -5 4 4 16 3 26 -3 15 -7 17 -6 13 5 -3 8 1 16 11 18 14 3 14 5 1 23
-14 20 -14 20 -13 0 1 -11 -5 -21 -15 -23 -12 -2 -18 3 -18 16 0 23 25 46 40
37 6 -4 10 7 10 29 0 29 4 36 19 36 12 0 21 -9 25 -25 8 -32 37 -43 98 -39 26
2 50 -1 53 -6 4 -6 11 -8 16 -5 5 3 6 -2 2 -11 -5 -13 -3 -15 7 -9 12 8 9 91
-6 130 -6 14 2 16 57 13 43 -2 64 -7 64 -15 0 -7 3 -13 8 -13 4 0 30 0 58 0
47 0 51 2 46 21 -4 16 -3 18 9 8 7 -6 11 -16 8 -21 -4 -6 2 -6 13 1 11 6 24 7
28 3 4 -4 6 0 3 8 -3 8 -12 14 -21 14 -9 -1 -19 7 -22 17 -4 11 -11 19 -16 19
-6 0 -7 5 -4 10 3 6 2 10 -3 10 -4 0 -14 42 -22 93 -30 217 -37 272 -33 279 2
4 -22 8 -54 10 l-58 3 0 33 c0 30 -2 32 -35 31 -19 -1 -45 -4 -57 -6z m-130
-162 c-6 -9 -13 6 -15 32 -1 15 -7 27 -13 27 -5 0 -3 5 5 10 12 8 16 2 20 -28
3 -20 4 -39 3 -41z m-193 -217 c0 -13 -4 -24 -10 -24 -5 0 -10 14 -10 31 0 17
4 28 10 24 6 -3 10 -17 10 -31z m325 -191 c10 -14 12 -24 5 -28 -5 -3 -10 -1
-10 6 0 8 -4 8 -15 -1 -8 -7 -16 -10 -16 -6 -1 3 -2 10 -3 15 0 5 -5 13 -10
18 -5 4 -6 3 -3 -3 4 -7 1 -17 -7 -23 -10 -9 -15 -8 -19 2 -6 17 3 32 23 39
25 8 40 3 55 -19z"/>
<path d="M1490 1057 c-19 -10 -25 -20 -24 -45 1 -19 -2 -29 -8 -26 -6 4 -5 -3
2 -15 9 -19 19 -22 61 -20 34 2 49 7 49 16 0 8 5 11 12 7 7 -5 8 -3 4 5 -6 9
-12 9 -25 -3 -19 -17 -76 -22 -86 -7 -3 6 8 8 28 4 28 -4 37 -1 51 18 21 30
20 35 -4 59 -23 23 -27 24 -60 7z m30 -27 c-10 -6 -11 -10 -2 -10 6 0 12 -7
12 -15 0 -8 -7 -15 -15 -15 -9 0 -15 9 -15 25 0 17 5 25 18 25 14 0 15 -2 2
-10z"/>
<path d="M1830 995 c0 -8 8 -15 18 -16 12 0 13 -2 3 -6 -11 -5 -11 -7 0 -14
12 -8 11 -11 -1 -19 -10 -6 -11 -10 -2 -10 6 0 12 -5 12 -11 0 -5 -4 -7 -10
-4 -6 4 -10 -5 -10 -19 0 -24 -4 -26 -41 -26 -32 0 -40 -3 -36 -14 5 -12 -32
-14 -253 -13 -142 1 -262 -1 -266 -5 -3 -4 -3 -15 1 -25 8 -17 8 -17 12 0 4
16 25 17 254 17 215 0 249 -2 249 -15 0 -21 20 -19 21 3 1 9 1 19 1 22 0 3 11
7 26 8 15 1 32 9 38 17 6 8 21 15 33 15 19 0 21 5 21 65 l0 65 -35 0 c-24 0
-35 -5 -35 -15z"/>
<path d="M720 949 c-35 -6 -35 -6 9 -8 l44 -1 -7 -61 c-4 -37 -4 -59 2 -55 5
3 12 29 14 58 3 29 11 54 17 56 6 2 11 7 11 10 0 9 -44 9 -90 1z"/>
<path d="M2220 938 c0 -4 5 -8 10 -8 6 0 10 -22 10 -49 0 -28 5 -53 12 -57 8
-5 10 8 5 49 l-6 57 36 0 c20 0 34 2 31 5 -9 10 -98 12 -98 3z"/>
<path d="M875 869 l-80 -5 100 -3 c183 -5 366 -3 372 3 4 3 -11 6 -33 6 -21 0
-93 2 -159 3 -66 1 -156 -1 -200 -4z"/>
<path d="M2005 860 c-4 -6 11 -10 37 -10 31 0 39 3 28 10 -20 13 -57 13 -65 0z"/>
<path d="M2110 860 c-11 -7 1 -10 42 -10 31 0 60 5 63 10 8 13 -85 13 -105 0z"/>
<path d="M667 803 c-4 -3 -7 -11 -7 -17 0 -7 3 -7 8 1 4 6 34 14 67 16 l60 3
-61 2 c-33 1 -64 -1 -67 -5z"/>
<path d="M1472 798 c-7 -7 -12 -24 -12 -38 0 -33 17 -50 50 -50 29 0 60 27 60
52 0 37 -70 64 -98 36z m54 -23 c-3 -10 1 -15 12 -15 15 0 15 -2 2 -10 -26
-17 -40 -11 -40 15 0 16 6 25 16 25 10 0 14 -6 10 -15z"/>
<path d="M2233 798 c3 -9 -10 -13 -47 -14 -131 -2 -162 -5 -138 -14 19 -8 22
-16 22 -70 l0 -60 34 0 33 0 -5 68 -4 67 56 -3 c43 -3 57 0 62 12 4 10 14 14
32 10 15 -3 38 -1 52 5 21 8 14 10 -39 10 -47 1 -62 -2 -58 -11z"/>
<path d="M790 754 c0 -26 3 -32 15 -28 8 4 18 16 21 28 3 15 14 22 34 23 l30
2 0 -71 c0 -39 3 -68 8 -64 8 9 9 13 11 71 0 25 5 45 11 45 6 0 8 -22 5 -54
-3 -41 -1 -55 10 -60 11 -4 15 3 15 27 0 68 12 107 31 107 17 0 19 -9 20 -72
1 -40 3 -65 6 -55 5 21 23 23 23 2 0 -10 9 -14 25 -13 23 2 37 18 15 18 -11 0
-13 33 -4 79 5 21 12 31 25 31 17 0 19 -8 19 -67 0 -48 3 -64 10 -53 9 13 11
13 20 0 8 -13 10 -12 10 3 0 9 -4 17 -10 17 -5 0 -10 14 -10 30 0 25 4 30 25
30 23 0 25 -4 25 -40 0 -22 3 -41 8 -41 4 -1 19 -2 34 -3 24 -2 26 1 22 31 -2
19 1 35 9 39 6 4 9 4 5 -1 -9 -9 9 -35 23 -35 5 0 9 9 9 20 0 11 -4 20 -9 20
-5 0 -13 10 -17 22 -6 19 -7 19 -16 4 -5 -9 -14 -13 -20 -10 -7 5 -9 1 -5 -9
3 -10 2 -17 -4 -17 -6 0 -6 -7 1 -20 11 -21 6 -40 -11 -40 -5 0 -9 12 -9 26 0
39 -18 64 -45 64 -38 0 -30 17 12 23 24 4 40 2 45 -6 6 -9 8 -9 8 1 0 6 3 11
8 11 16 -3 32 1 32 9 0 4 -106 8 -235 8 l-235 2 0 -34z"/>
<path d="M660 728 c0 -6 19 -9 45 -6 40 3 44 1 40 -17 -15 -76 -15 -92 0 -92
9 0 14 6 11 12 -2 7 -1 16 4 21 4 5 11 27 15 50 l6 41 -60 1 c-35 0 -61 -4
-61 -10z"/>
<path d="M2270 729 c-19 -3 -29 -7 -22 -8 7 0 12 -17 13 -43 1 -51 13 -97 21
-83 3 6 2 36 -1 67 l-7 57 41 3 c31 2 35 4 15 8 -14 3 -41 3 -60 -1z"/>
<path d="M813 714 c-16 -11 -15 -12 10 -10 15 2 27 0 27 -3 -1 -11 -27 -41
-32 -36 -2 3 -5 -2 -5 -12 0 -12 5 -11 20 8 11 13 25 23 31 22 6 -2 12 6 12
16 0 24 -39 33 -63 15z"/>
<path d="M1390 673 c0 -6 -12 -8 -26 -5 -16 3 -30 -1 -35 -9 -5 -8 -9 -9 -9
-3 0 7 -13 11 -28 11 -17 -1 -29 -7 -29 -15 0 -8 8 -12 19 -8 14 3 18 0 14
-10 -3 -8 -1 -14 4 -14 6 0 10 5 10 10 0 6 5 10 11 10 5 0 7 -4 4 -10 -3 -5 2
-10 12 -10 10 0 29 -7 41 -16 13 -9 22 -11 22 -4 0 6 -10 15 -22 20 -13 5 -18
9 -13 10 6 1 1 5 -10 10 -17 8 -17 9 7 7 15 -1 25 -4 22 -8 -2 -4 3 -10 12
-13 12 -5 15 -2 10 10 -5 13 -3 14 6 7 7 -6 38 -9 68 -8 30 2 62 -1 72 -6 12
-7 18 -6 18 2 0 6 9 9 20 6 11 -3 20 -1 20 4 0 5 6 9 14 9 8 0 18 4 21 10 3 5
0 7 -8 4 -8 -3 -18 0 -22 5 -3 6 -12 8 -18 4 -18 -11 -180 -11 -194 0 -8 6
-13 6 -13 0z"/>
<path d="M775 619 c6 -8 10 -9 98 -9 32 1 56 -3 53 -8 -3 -5 10 -8 29 -6 39 3
59 -14 26 -23 -39 -10 -11 -21 46 -18 32 2 63 -1 69 -6 8 -7 15 -6 19 1 4 6
-1 18 -11 26 -18 15 -18 15 1 9 16 -5 17 -4 8 6 -9 9 -15 9 -26 0 -8 -6 -22
-9 -31 -5 -9 3 -22 1 -29 -4 -10 -8 -13 -6 -14 7 -1 17 27 25 77 21 8 -1 45
-1 82 -1 l68 1 -10 -26 c-6 -15 -8 -29 -5 -32 8 -8 12 0 19 38 l6 36 -143 -1
c-79 -1 -148 -5 -154 -8 -7 -4 -14 -3 -18 3 -4 6 -23 8 -43 5 -49 -7 -52 -7
-89 -2 -18 2 -30 1 -28 -4z"/>
<path d="M2020 620 l-145 -6 189 -2 c104 -1 186 1 183 5 -9 9 -52 9 -227 3z"/>
<path d="M2963 613 c-7 -2 -13 -11 -13 -19 0 -8 -6 -11 -17 -7 -12 4 -11 0 5
-11 12 -10 22 -26 22 -37 0 -23 21 -21 28 2 3 11 2 11 -7 -1 -9 -12 -11 -10
-11 13 0 15 7 30 15 33 8 4 15 12 15 20 0 14 -14 17 -37 7z"/>
<path d="M2846 564 c-9 -6 -16 -19 -16 -28 0 -9 -8 -16 -20 -16 -11 0 -20 7
-20 15 0 8 -6 12 -14 9 -11 -4 -8 -11 10 -31 13 -14 24 -32 24 -38 0 -12 -43
-25 -83 -26 -14 0 -16 -3 -8 -12 14 -18 -2 -39 -23 -31 -14 5 -15 9 -4 15 8 5
9 11 3 18 -7 6 -16 5 -28 -4 -18 -13 -18 -14 2 -27 12 -7 22 -22 22 -33 1 -17
2 -17 6 -2 2 9 8 17 13 17 5 0 21 12 36 27 16 16 29 23 31 16 5 -14 -44 -71
-67 -78 -10 -3 -20 -15 -23 -26 -3 -12 -10 -18 -15 -15 -5 3 -15 -1 -22 -9
-11 -13 -7 -15 27 -15 46 0 57 -8 41 -27 -10 -12 -7 -12 15 -2 15 7 27 16 27
21 0 4 16 8 36 8 20 0 33 4 29 10 -3 5 -12 7 -20 3 -8 -3 -15 -1 -15 5 0 5
-12 7 -26 4 -21 -4 -25 -2 -20 9 4 8 1 6 -7 -3 -8 -10 -20 -18 -27 -18 -9 0
-8 5 3 18 10 10 14 22 10 25 -3 4 1 7 9 7 8 0 27 9 40 20 14 10 28 17 31 13 3
-3 13 2 22 11 9 9 13 16 8 16 -5 0 -14 -5 -21 -12 -9 -9 -12 -9 -12 1 0 8 8
20 18 28 9 8 12 12 5 9 -6 -4 -14 -2 -17 3 -3 5 8 14 25 20 27 9 29 13 19 31
-6 12 -9 26 -6 33 3 9 5 9 5 0 1 -7 8 -13 16 -13 8 0 12 -6 9 -14 -3 -8 -2
-22 4 -31 6 -12 9 -2 11 36 1 29 6 58 12 66 9 10 6 13 -14 11 -14 -1 -33 -7
-41 -14z"/>
<path d="M1540 563 c8 -3 21 -12 28 -21 10 -13 12 -13 12 -1 0 12 2 12 10 -1
8 -13 10 -12 10 4 0 12 5 16 16 12 9 -3 28 -8 42 -11 22 -4 23 -4 7 3 -20 9
-20 9 0 14 11 3 -16 5 -60 5 -44 0 -73 -2 -65 -4z"/>
<path d="M2918 547 c-9 -8 -15 -22 -13 -33 2 -10 4 -22 4 -26 1 -5 13 -8 28
-8 l27 0 -22 -20 c-29 -28 -28 -35 2 -13 14 10 27 26 29 35 4 14 0 16 -23 12
-15 -4 -31 -1 -34 5 -5 7 2 11 16 12 13 0 17 3 11 6 -7 2 -13 11 -13 19 0 9 5
12 10 9 6 -3 10 -1 10 4 0 14 -11 13 -32 -2z"/>
<path d="M1506 539 c-41 -11 -56 -36 -42 -71 12 -32 49 -47 75 -31 9 6 18 25
21 44 7 45 -15 68 -54 58z m25 -19 c15 -9 17 -13 7 -24 -7 -7 -19 -11 -25 -9
-7 3 -13 1 -13 -5 0 -5 10 -13 23 -17 21 -7 20 -8 -7 -12 -27 -4 -58 18 -36
25 5 2 6 10 3 19 -3 8 0 19 8 24 18 11 17 11 40 -1z"/>
<path d="M1128 532 c-23 -3 -28 -8 -28 -31 0 -16 -3 -49 -6 -75 -7 -45 -6 -46
20 -44 25 2 26 5 26 60 0 32 -4 57 -9 56 -5 -2 -11 1 -12 7 -2 5 21 11 53 12
55 3 57 2 51 -19 -3 -13 -6 -40 -8 -60 -1 -21 -7 -43 -13 -50 -8 -10 -5 -13
13 -13 12 0 21 5 19 10 -7 21 -11 85 -5 85 4 0 8 14 9 31 2 29 1 30 -30 28
-18 -2 -38 -1 -43 2 -6 3 -22 3 -37 1z m2 -82 c0 -16 -4 -30 -9 -30 -5 0 -9
14 -9 30 1 17 5 30 10 30 4 0 8 -13 8 -30z"/>
<path d="M873 455 l-1 -75 27 0 c18 0 28 5 28 15 0 8 -5 15 -11 14 -27 -3 -31
4 -28 57 l4 56 33 -4 c19 -2 31 0 29 4 -3 4 -22 8 -42 8 l-37 0 -2 -75z"/>
<path d="M990 501 c0 -15 -3 -49 -6 -75 -4 -30 -3 -46 4 -46 6 0 13 8 15 18 4
16 5 16 6 0 0 -10 8 -18 16 -18 14 0 22 28 27 108 3 41 3 42 -29 42 -30 0 -33
-3 -33 -29z m30 -31 c0 -27 -4 -50 -10 -50 -5 0 -10 23 -10 50 0 28 5 50 10
50 6 0 10 -22 10 -50z"/>
<path d="M2530 505 c-8 -22 -16 -25 -62 -26 -29 -1 -61 -1 -70 0 -10 1 -18 -3
-18 -9 0 -11 104 -11 139 0 9 3 17 -6 22 -25 7 -25 6 -27 -4 -14 -10 13 -14
14 -25 3 -9 -10 -4 -18 31 -38 23 -14 36 -26 29 -26 -8 0 -12 -6 -9 -12 2 -7
15 -11 28 -10 l24 4 -25 -28 c-14 -16 -17 -22 -6 -14 18 14 18 13 11 -8 -6
-22 -5 -23 14 -13 12 7 19 19 17 29 -14 67 -20 81 -37 85 -11 3 -17 1 -13 -4
7 -12 -7 -11 -26 1 -8 5 -10 10 -4 10 7 0 11 16 10 39 0 24 -5 37 -11 33 -5
-3 -2 4 8 15 9 11 14 23 10 26 -12 13 -24 7 -33 -18z"/>
<path d="M1 492 c-1 -17 4 -23 16 -20 9 2 18 9 21 17 3 10 0 12 -11 8 -9 -3
-18 -1 -21 6 -2 7 -5 2 -5 -11z"/>
<path d="M730 501 c-9 -4 -15 -18 -14 -36 0 -16 -3 -42 -7 -57 -4 -15 -4 -30
1 -33 11 -7 16 11 19 65 2 25 8 48 14 52 16 10 5 17 -13 9z"/>
<path d="M2284 463 c3 -21 6 -46 6 -56 0 -10 4 -16 9 -13 5 3 6 26 4 50 l-5
45 48 4 c49 3 49 3 -10 5 l-59 2 7 -37z"/>
<path d="M25 460 c-10 -16 43 -36 57 -22 14 14 11 17 -24 26 -15 3 -30 2 -33
-4z"/>
<path d="M0 425 c0 -15 4 -24 10 -20 12 7 50 -3 50 -14 0 -4 -15 -6 -32 -4
l-33 3 34 -13 c50 -19 54 -42 7 -34 l-37 6 2 -38 c2 -28 7 -37 21 -38 16 -2
22 8 19 29 0 4 10 15 23 25 13 11 27 33 30 50 7 29 6 31 -33 37 -23 3 -40 11
-38 17 1 6 -4 14 -10 16 -9 3 -13 -5 -13 -22z"/>
<path d="M2590 434 c0 -18 28 -30 41 -17 6 6 0 14 -16 21 -21 10 -25 9 -25 -4z"/>
<path d="M2050 434 c0 -6 7 -17 16 -25 10 -8 14 -22 11 -39 -3 -14 -1 -32 4
-40 7 -12 8 -10 7 7 -2 12 2 22 7 21 6 0 9 -4 8 -8 -11 -40 -14 -90 -5 -90 5
0 10 -12 9 -27 -3 -75 4 -123 16 -123 21 0 15 140 -6 151 -16 10 -14 61 3 67
5 2 7 27 4 55 -6 59 -14 76 -14 29 0 -18 -4 -32 -10 -32 -5 0 -10 10 -10 22 0
12 -3 18 -7 15 -3 -4 -12 1 -19 11 -7 9 -14 12 -14 6z"/>
<path d="M582 398 c-10 -27 -9 -35 2 -46 12 -13 16 -9 25 24 14 50 14 54 -2
54 -7 0 -18 -14 -25 -32z"/>
<path d="M783 416 c1 -6 -3 -10 -10 -9 -15 3 -10 -24 7 -40 8 -6 11 -8 7 -3
-4 5 -2 15 4 23 6 7 8 13 4 13 -4 0 -2 6 4 13 8 10 7 14 -4 14 -7 0 -13 -5
-12 -11z"/>
<path d="M2630 400 c0 -14 40 -53 48 -46 9 9 -20 56 -35 56 -7 0 -13 -4 -13
-10z"/>
<path d="M1425 390 c5 -8 -7 -10 -39 -9 -25 2 -48 0 -52 -3 -8 -9 128 -14 162
-7 l29 7 -27 1 c-39 1 -41 2 -62 13 -13 7 -16 7 -11 -2z"/>
<path d="M1684 390 c-6 -6 -41 -11 -78 -11 -37 -1 -65 -4 -61 -7 9 -9 218 -3
228 7 4 5 -13 6 -39 3 -33 -3 -45 -1 -40 7 9 14 3 14 -10 1z"/>
<path d="M2194 343 c6 -32 12 -50 14 -40 2 9 8 17 13 17 6 0 8 -9 4 -20 -5
-16 -3 -19 11 -13 12 4 15 3 10 -5 -10 -16 -53 -15 -58 0 -3 8 -10 4 -17 -11
-9 -15 -9 -21 -2 -16 12 7 9 -34 -3 -54 -4 -5 -2 -12 3 -15 5 -3 8 -31 6 -61
-2 -40 2 -58 12 -64 13 -7 13 -9 -2 -15 -9 -3 -22 -3 -27 1 -7 3 -8 1 -4 -5 4
-7 19 -12 33 -12 24 0 25 2 18 46 -6 43 -5 45 14 39 12 -4 21 -2 21 4 0 6 -3
10 -7 10 -23 -4 -35 3 -29 16 3 8 0 15 -7 15 -8 0 -8 3 2 9 11 7 11 10 0 15
-10 4 -11 7 -2 12 7 3 9 12 6 21 -5 12 -2 14 8 9 8 -4 5 0 -5 8 -26 21 -17 28
22 17 29 -9 32 -8 32 14 0 13 6 25 13 28 7 3 5 7 -8 12 -27 11 -65 46 -65 60
0 6 10 11 21 11 12 -1 24 5 26 12 3 8 -7 12 -29 12 l-35 0 11 -57z"/>
<path d="M2872 388 c-5 -7 -8 -28 -6 -46 2 -21 0 -31 -7 -26 -6 3 -8 12 -5 20
3 8 1 14 -4 14 -15 0 -12 -26 5 -40 12 -10 16 -8 24 11 5 15 5 29 -1 37 -7 8
-7 17 2 27 7 8 10 15 7 15 -2 0 -9 -6 -15 -12z"/>
<path d="M2266 364 c-11 -28 -6 -41 18 -52 19 -9 25 -8 30 4 3 8 13 14 21 14
9 0 13 -4 10 -10 -3 -5 1 -10 10 -10 9 0 13 5 10 10 -3 6 2 10 12 11 10 1 -2
5 -27 10 -36 7 -46 6 -53 -6 -12 -22 -26 -9 -21 20 5 28 -1 33 -10 9z"/>
<path d="M955 359 l-50 -6 55 -2 c144 -7 240 -6 240 1 0 9 -6 10 -115 12 -44
1 -102 -1 -130 -5z"/>
<path d="M2475 360 c-3 -6 -17 -7 -31 -4 -17 5 -24 2 -24 -9 0 -8 -6 -17 -12
-20 -7 -2 -10 -8 -5 -12 4 -5 13 -3 19 3 9 9 16 8 30 -5 10 -9 18 -13 18 -9 0
4 14 -2 30 -14 17 -12 30 -18 30 -14 0 4 9 -1 19 -10 32 -29 50 -14 19 17 -14
14 -23 29 -20 32 4 3 -1 3 -11 0 -15 -6 -14 -9 6 -26 l22 -19 -27 13 c-26 11
-46 37 -29 37 4 0 8 7 8 15 0 9 -6 14 -13 11 -8 -3 -11 0 -7 10 6 16 -12 20
-22 4z"/>
<path d="M1218 353 c-2 -5 -1 -24 3 -43 3 -20 7 -26 8 -15 2 11 4 30 7 43 4
20 -10 32 -18 15z"/>
<path d="M640 338 c0 -5 16 -8 35 -8 32 0 34 -2 26 -22 -5 -13 -9 -27 -9 -33
0 -5 -9 -13 -19 -17 -15 -7 -15 -8 4 -4 13 2 20 -1 18 -8 -2 -6 -6 -39 -10
-72 -4 -46 -2 -63 7 -66 10 -4 13 13 14 69 1 52 6 78 15 84 8 5 9 9 4 9 -14 0
-18 47 -5 55 22 14 8 22 -35 21 -25 -1 -45 -4 -45 -8z"/>
<path d="M233 313 c-7 -2 -13 -11 -13 -19 0 -16 -16 -19 -25 -4 -3 6 -12 10
-18 9 -9 0 -9 -2 1 -6 6 -2 12 -11 12 -18 0 -17 36 -38 50 -30 6 3 10 14 10
23 -1 15 -2 15 -14 -1 -9 -12 -16 -14 -21 -8 -3 6 -2 11 3 11 5 0 14 11 20 25
6 14 11 25 9 24 -1 0 -8 -3 -14 -6z"/>
<path d="M2141 298 c-13 -36 -1 -53 15 -22 17 31 18 44 4 44 -6 0 -14 -10 -19
-22z"/>
<path d="M2340 290 c8 -5 11 -10 5 -10 -5 0 -3 -5 5 -10 12 -8 12 -10 -5 -11
-11 0 -14 -3 -7 -6 6 -2 12 -11 12 -18 0 -8 5 -17 11 -21 8 -4 9 0 4 15 -5 17
-2 21 17 22 l23 0 -22 9 c-13 5 -23 16 -23 25 0 8 -8 15 -17 15 -15 0 -16 -2
-3 -10z"/>
<path d="M2406 291 c-4 -7 0 -23 9 -38 9 -14 12 -22 6 -19 -7 5 -11 -1 -11
-15 0 -18 3 -20 12 -11 7 7 20 12 29 12 9 0 20 8 24 18 7 16 8 16 14 -2 8 -20
41 -32 41 -15 0 5 -4 9 -10 9 -5 0 -6 7 -3 17 4 11 3 14 -5 9 -7 -4 -12 -2
-12 4 0 7 -7 9 -16 6 -8 -3 -12 -2 -9 4 3 6 1 10 -6 10 -6 0 -9 -8 -6 -20 3
-11 1 -23 -4 -26 -5 -3 -9 1 -9 8 -1 23 -36 62 -44 49z"/>
<path d="M1245 280 c-2 -4 16 -7 41 -9 24 -1 44 2 44 6 0 9 -80 11 -85 3z"/>
<path d="M1457 283 c-4 -3 -30 -5 -59 -4 -45 1 -55 -3 -67 -22 -14 -22 -14
-22 7 -4 15 14 31 17 64 14 46 -5 89 5 71 16 -6 4 -13 4 -16 0z"/>
<path d="M1510 278 c0 -5 8 -8 18 -7 45 4 61 -1 56 -18 -5 -17 -5 -17 6 0 6 9
23 17 37 17 15 0 24 3 20 6 -9 10 -137 11 -137 2z"/>
<path d="M2022 251 c2 -27 9 -46 17 -49 11 -4 12 3 7 34 -11 58 -28 68 -24 15z"/>
<path d="M112 258 c-43 -21 -43 -37 1 -38 10 0 15 -5 12 -10 -4 -6 -11 -8 -16
-5 -5 4 -9 2 -9 -3 0 -6 7 -13 16 -16 22 -9 24 -8 18 9 -8 21 18 19 63 -5 34
-18 37 -18 49 -3 6 10 9 24 6 33 -5 13 -7 12 -10 -2 -6 -29 -28 -20 -56 22
-14 22 -27 40 -29 40 -1 -1 -21 -10 -45 -22z m55 -27 c21 -12 9 -14 -36 -5
-17 4 -31 10 -31 14 0 10 44 4 67 -9z"/>
<path d="M265 270 c-3 -5 4 -10 17 -11 23 -1 23 -1 -2 -8 -25 -7 -25 -7 -3
-19 17 -10 22 -9 27 5 6 14 8 14 26 -2 11 -10 20 -25 20 -34 1 -45 44 -51 46
-7 1 15 -3 23 -10 20 -6 -2 -20 7 -30 21 -10 14 -27 25 -37 25 -10 0 -21 5
-24 10 -3 6 -10 10 -15 10 -5 0 -12 -4 -15 -10z"/>
<path d="M750 271 c0 -7 20 -11 50 -11 l50 0 0 -76 0 -75 28 3 c34 4 36 31 2
39 l-25 7 28 1 c25 1 27 4 27 46 0 31 5 47 18 54 12 8 -4 10 -65 11 -45 0 -88
3 -97 6 -9 3 -16 1 -16 -5z m146 -47 c-3 -9 -6 -25 -6 -35 0 -11 -4 -18 -9
-14 -16 9 -10 65 7 65 9 0 12 -6 8 -16z"/>
<path d="M2282 248 c0 -18 4 -28 14 -28 8 0 14 -7 14 -16 0 -8 -4 -13 -9 -10
-5 3 -8 -5 -8 -19 0 -14 2 -23 6 -21 4 3 5 -11 3 -30 -3 -26 0 -34 12 -34 13
0 15 11 11 71 -2 39 -10 77 -16 86 -10 12 -10 16 2 23 10 7 9 9 -7 8 -16 -2
-21 -9 -22 -30z"/>
<path d="M2610 271 c0 -6 4 -12 10 -16 5 -3 7 -12 3 -20 -3 -8 0 -15 6 -15 6
0 11 -5 11 -12 0 -6 8 -21 17 -32 10 -12 11 -15 3 -8 -20 17 -30 15 -23 -5 5
-14 1 -13 -16 5 -12 12 -25 22 -29 23 -4 0 -16 2 -26 4 -30 6 -42 -7 -16 -17
12 -5 20 -11 17 -14 -3 -3 -26 6 -51 20 -39 22 -48 24 -52 11 -8 -20 14 -45
32 -38 8 3 21 -3 28 -13 10 -13 17 -15 27 -8 33 25 199 -14 215 -51 6 -14 20
-21 47 -23 20 -2 37 -9 37 -15 0 -7 4 -6 10 3 7 12 12 12 22 2 6 -6 19 -12 28
-11 11 0 9 3 -5 10 -14 6 -4 8 37 6 56 -2 57 -2 56 26 -1 30 -18 38 -18 9 0
-16 -9 -19 -64 -21 -49 -2 -65 1 -69 14 -4 8 -2 15 4 15 6 0 3 7 -6 16 -10 10
-13 24 -9 37 6 19 5 20 -9 8 -12 -10 -14 -18 -7 -31 7 -13 6 -21 -2 -26 -6 -4
-8 -3 -5 2 3 6 2 16 -2 23 -6 10 -12 9 -24 -4 -15 -14 -19 -14 -37 -2 -11 7
-17 17 -12 21 4 5 -4 6 -18 4 -15 -2 -25 2 -26 10 -1 6 -2 20 -3 30 -1 15 -3
15 -12 2 -8 -12 -9 -9 -5 13 4 15 2 27 -4 27 -5 0 -10 -5 -10 -11 0 -8 -5 -7
-15 1 -18 15 -13 22 18 26 12 1 24 3 27 4 7 1 -60 30 -71 30 -5 0 -9 -4 -9 -9z"/>
<path d="M2803 274 c3 -4 2 -14 -3 -23 -7 -15 -1 -17 47 -19 36 -2 54 1 51 9
-2 6 -8 10 -13 10 -6 0 -19 8 -29 17 -15 13 -18 14 -11 2 6 -12 5 -13 -6 -2
-13 12 -48 18 -36 6z"/>
<path d="M958 264 c7 -3 12 -23 12 -47 0 -41 0 -41 16 -19 9 13 22 21 29 18 8
-3 15 5 18 20 3 17 0 24 -12 25 -9 0 -29 2 -46 4 -16 2 -24 2 -17 -1z"/>
<path d="M1091 261 c-17 -11 7 -51 31 -51 9 0 18 -10 21 -22 2 -13 5 -2 6 23
1 45 1 45 36 45 20 -1 35 -6 35 -13 0 -7 -7 -10 -17 -7 -16 5 -17 5 -1 -5 19
-13 24 -101 5 -101 -7 0 -6 -4 3 -10 13 -9 13 -10 -1 -10 -8 0 -26 -11 -39
-25 -21 -22 -22 -25 -5 -25 10 0 15 3 12 7 -11 10 13 33 34 33 17 0 19 8 19
75 0 41 -1 78 -2 82 -4 10 -122 13 -137 4z"/>
<path d="M1908 263 c-38 -4 -38 -5 -38 -49 0 -24 2 -44 4 -44 17 0 52 29 54
45 5 36 11 45 27 39 8 -3 15 -1 15 5 0 6 -6 10 -12 9 -7 -1 -30 -3 -50 -5z"/>
<path d="M2746 251 c-3 -5 0 -12 6 -14 10 -4 10 -8 -1 -15 -7 -5 -10 -15 -7
-21 11 -17 26 -13 19 5 -5 14 -3 15 18 5 20 -10 21 -10 9 1 -8 7 -15 19 -15
27 0 17 -21 26 -29 12z"/>
<path d="M1490 239 c0 -5 -4 -8 -8 -5 -5 3 -15 -5 -22 -18 -32 -61 57 -120 95
-63 23 35 11 73 -27 86 -38 13 -38 13 -38 0z m45 -44 c0 -11 5 -23 10 -27 6
-4 -9 -8 -32 -8 -38 0 -41 2 -35 23 10 40 57 50 57 12z"/>
<path d="M607 233 c-3 -5 -7 -37 -10 -73 -5 -60 -5 -62 6 -28 7 20 18 43 25
50 14 14 16 52 2 43 -6 -4 -8 -11 -5 -16 4 -5 1 -9 -6 -9 -6 0 -9 8 -6 20 5
20 2 27 -6 13z"/>
<path d="M1789 228 c0 -7 -2 -25 -4 -40 -2 -16 1 -28 6 -28 5 0 9 8 10 18 0 9
2 27 3 40 2 12 -1 22 -6 22 -4 0 -8 -6 -9 -12z"/>
<path d="M1705 214 c12 -9 21 -11 23 -4 3 7 11 6 25 -1 21 -10 21 -10 3 5 -11
9 -31 16 -45 16 -25 -1 -25 -1 -6 -16z"/>
<path d="M317 209 c-9 -6 -17 -14 -17 -19 0 -16 30 -11 37 5 8 21 1 25 -20 14z"/>
<path d="M2820 197 c-22 -8 -36 -19 -37 -30 -1 -17 1 -17 18 2 11 12 23 21 27
21 17 -1 81 -27 98 -40 11 -9 15 -10 10 -2 -5 8 0 12 13 12 12 0 20 -5 19 -11
-2 -6 2 -13 8 -16 7 -2 14 9 16 26 4 27 2 29 -14 20 -14 -8 -24 -7 -36 3 -12
10 -14 10 -8 0 6 -10 1 -11 -21 -6 -40 10 -47 15 -32 25 21 13 -18 10 -61 -4z"/>
<path d="M150 187 c0 -9 5 -19 10 -22 6 -4 10 -12 9 -18 -5 -39 26 -43 49 -7
10 16 9 18 -8 15 -12 -2 -27 6 -40 22 -14 18 -20 21 -20 10z"/>
<path d="M1049 188 c-1 -7 0 -20 1 -27 1 -13 -1 -13 -14 -2 -9 8 -19 11 -23 7
-3 -3 0 -6 7 -6 19 0 3 -13 -20 -17 -12 -2 -20 3 -20 12 0 8 -4 15 -10 15 -14
0 -13 -13 2 -28 9 -9 9 -12 0 -12 -7 0 -12 -4 -12 -9 0 -15 54 -9 68 8 12 14
13 12 7 -14 -4 -16 -3 -27 1 -23 4 4 13 3 21 -3 9 -9 13 -8 13 0 0 6 -4 11
-10 11 -16 0 -11 32 8 46 15 12 15 15 2 24 -11 7 -11 10 -2 10 7 0 10 5 7 10
-9 14 -25 12 -26 -2z"/>
<path d="M2356 181 c11 -10 30 -22 41 -25 28 -9 36 -32 18 -50 -8 -8 -15 -23
-15 -33 0 -15 2 -16 10 -3 12 19 13 4 1 -19 -9 -16 -4 -17 62 -16 174 4 167 3
167 28 0 22 -3 23 -87 22 -49 0 -94 -4 -100 -8 -7 -5 -14 -5 -14 0 -3 12 -5
45 -7 79 -2 34 -29 54 -44 32 -8 -10 -11 -10 -15 0 -2 6 -12 12 -21 12 -13 0
-12 -3 4 -19z"/>
<path d="M60 180 c0 -5 -8 -10 -17 -10 -14 -1 -12 -4 7 -15 21 -13 22 -14 5
-13 -36 2 -55 -2 -55 -12 0 -11 54 -3 85 13 13 7 15 12 7 15 -6 2 -12 10 -12
18 0 8 -4 14 -10 14 -5 0 -10 -4 -10 -10z"/>
<path d="M1647 184 c-3 -3 -1 -19 3 -35 6 -19 5 -29 -2 -29 -6 0 -8 -12 -5
-29 5 -26 4 -28 -20 -23 -16 3 -24 1 -20 -6 4 -5 0 -12 -8 -16 -8 -3 -15 -1
-15 5 0 6 -4 7 -10 4 -5 -3 -10 -13 -10 -21 0 -20 69 -19 76 1 4 8 12 15 19
15 9 0 13 19 14 64 1 59 -7 84 -22 70z"/>
<path d="M1696 159 c-12 -60 -8 -69 24 -69 17 0 30 5 30 10 0 6 8 10 17 10 9
0 14 3 10 6 -3 3 -22 6 -43 6 -25 0 -33 3 -23 9 8 5 9 9 3 9 -7 0 -9 11 -6 25
2 14 2 25 -1 25 -2 0 -7 -14 -11 -31z"/>
<path d="M108 168 c12 -6 22 -15 22 -20 0 -5 -5 -6 -12 -2 -7 4 -8 3 -4 -4 4
-7 2 -12 -3 -12 -6 0 -11 -5 -11 -11 0 -8 6 -7 17 2 15 12 16 12 10 -5 -7 -16
-5 -17 9 -5 9 7 12 15 6 17 -6 2 -9 9 -6 17 5 12 -24 36 -43 34 -4 0 2 -5 15
-11z"/>
<path d="M1967 174 c-3 -3 -1 -14 6 -25 6 -10 8 -22 4 -26 -5 -4 -12 -2 -16 6
-7 10 -10 9 -14 -3 -4 -9 -1 -16 5 -16 7 0 5 -7 -4 -17 -9 -10 -18 -27 -21
-38 -5 -19 -5 -19 -12 2 -4 13 -11 20 -16 17 -5 -3 -7 -11 -3 -17 3 -7 -2 -3
-10 7 -23 28 -20 37 9 30 16 -4 25 -2 25 6 0 7 -7 10 -15 6 -9 -3 -15 0 -15 9
0 8 3 14 8 14 24 -4 35 2 24 13 -8 8 -15 8 -26 -1 -8 -7 -21 -9 -27 -5 -9 5
-10 2 -6 -9 3 -9 0 -23 -8 -31 -13 -12 -12 -15 1 -20 12 -4 13 -10 4 -26 -8
-16 -8 -22 3 -26 24 -9 170 0 174 11 2 6 -6 11 -18 12 -26 2 -25 1 -32 43 l-7
35 21 -24 c15 -19 17 -26 7 -32 -9 -6 -7 -9 8 -9 11 0 24 -4 30 -9 14 -14 94
-24 94 -12 0 5 -19 12 -42 14 l-43 4 43 1 c31 2 42 6 42 18 0 8 5 12 10 9 6
-3 10 -1 10 4 0 6 -13 11 -30 11 -16 0 -30 -5 -30 -11 0 -5 6 -7 13 -3 9 5 9
4 0 -6 -6 -7 -22 -10 -35 -7 -13 4 -26 5 -30 4 -12 -4 -59 47 -54 59 3 7 -2
15 -10 18 -9 3 -12 10 -9 16 7 11 2 14 -8 4z"/>
<path d="M2010 170 c0 -16 23 -60 32 -60 13 0 10 12 -9 32 -16 18 -16 18 0 12
12 -4 17 -1 17 10 0 9 -8 16 -20 16 -11 0 -20 -4 -20 -10z"/>
<path d="M2861 143 c6 -18 15 -33 21 -33 5 0 6 -5 2 -12 -5 -8 -2 -9 10 -5 10
4 20 7 23 7 4 0 -2 9 -12 20 -11 12 -13 20 -6 20 6 0 17 -11 23 -25 11 -25 54
-37 46 -13 -6 17 -67 50 -79 42 -6 -3 -17 2 -25 12 -12 17 -13 15 -3 -13z"/>
<path d="M256 145 c19 -14 19 -14 -3 -15 -12 0 -25 -5 -29 -11 -5 -8 1 -10 20
-7 20 4 26 1 26 -13 0 -10 -4 -21 -10 -24 -6 -4 -7 1 -3 10 4 13 1 16 -12 14
-10 -2 -23 -17 -28 -32 -9 -29 -2 -50 11 -30 4 6 25 13 47 15 36 3 40 6 48 41
5 20 13 37 17 37 5 0 4 -15 -1 -32 -5 -18 -9 -34 -9 -36 0 -2 24 -3 53 -2 70
3 79 2 72 -10 -4 -6 -15 -8 -26 -5 -10 4 -25 3 -33 -2 -8 -4 80 -8 195 -9 115
0 209 3 209 7 0 6 -85 12 -197 13 -47 1 -53 3 -53 22 0 30 -22 47 -39 31 -11
-10 -11 -7 -2 13 11 23 11 24 -3 6 -8 -10 -17 -22 -18 -26 -2 -4 -24 -10 -51
-13 -26 -3 -52 -9 -57 -12 -5 -3 -7 1 -4 9 3 8 12 17 20 20 8 3 14 10 14 16 0
8 -6 8 -20 0 -11 -6 -20 -7 -20 -2 0 5 10 14 23 20 18 10 11 11 -45 10 -38 -1
-71 2 -75 5 -3 4 -13 7 -22 7 -11 0 -10 -3 5 -15z m271 -52 c-4 -3 -1 -13 5
-21 10 -11 8 -13 -12 -10 -13 1 -25 9 -28 17 -3 8 0 11 6 7 6 -3 13 -2 17 4 3
5 9 10 12 10 4 0 3 -3 0 -7z"/>
<path d="M1432 145 c2 -14 -2 -20 -14 -19 -10 1 -14 -4 -11 -13 5 -12 8 -12
22 1 14 13 19 13 35 0 11 -8 27 -14 35 -14 9 1 3 8 -14 16 -16 9 -36 24 -43
33 -12 14 -13 14 -10 -4z"/>
<path d="M1294 142 c5 -8 -1 -12 -16 -13 -19 -1 -20 -2 -4 -6 10 -3 28 -14 40
-24 11 -11 22 -15 24 -9 2 5 8 10 14 10 11 0 38 25 38 35 0 3 -13 -3 -28 -13
-20 -15 -32 -18 -45 -11 -10 6 -15 14 -12 19 3 5 0 12 -6 16 -8 4 -9 3 -5 -4z"/>
<path d="M2372 138 c-6 -7 -12 -26 -14 -42 -2 -22 2 -29 15 -32 15 -2 18 2 13
19 -3 11 0 27 6 34 7 9 8 17 1 24 -7 7 -13 6 -21 -3z"/>
<path d="M1075 131 c-3 -5 -1 -12 5 -16 14 -9 13 -45 -2 -45 -6 0 -8 -3 -5 -6
4 -4 13 -1 22 6 11 9 12 17 5 30 -14 26 -13 30 7 23 11 -4 14 -3 9 5 -9 14
-33 16 -41 3z"/>
<path d="M568 106 c-3 -14 -3 -28 1 -30 3 -2 59 -7 124 -10 106 -7 117 -6 117
9 0 11 -5 15 -15 11 -8 -3 -15 -1 -15 4 0 6 -8 10 -17 10 -14 0 -15 -2 -5 -9
10 -6 8 -10 -8 -14 -17 -4 -20 -2 -16 10 6 14 4 14 -10 2 -13 -11 -18 -11 -21
-1 -3 6 -14 12 -24 12 -11 0 -17 -4 -14 -10 3 -5 1 -10 -4 -10 -6 0 -11 5 -11
11 0 6 -5 7 -12 2 -23 -14 -43 -8 -54 16 l-11 24 -5 -27z"/>
<path d="M1566 118 c4 -7 3 -8 -4 -4 -7 4 -20 2 -29 -3 -15 -9 -13 -10 12 -11
26 -1 28 -2 12 -11 -11 -6 -33 -8 -50 -5 -28 6 -30 5 -13 -7 17 -13 16 -14
-12 -9 -18 2 -30 7 -27 11 2 4 -2 8 -10 8 -8 0 -12 -5 -8 -10 3 -5 -4 -6 -16
-2 -13 4 -29 1 -38 -7 -9 -7 -14 -8 -10 -2 4 7 -2 10 -18 8 -14 -1 -27 2 -31
7 -9 16 -24 10 -24 -10 0 -18 9 -20 121 -23 121 -3 147 1 135 20 -7 12 16 22
49 22 19 0 22 4 17 22 -4 16 -7 18 -11 7 -8 -19 -31 -23 -31 -4 0 8 -5 15 -11
15 -5 0 -7 -5 -3 -12z"/>
<path d="M2580 120 c-30 -6 -31 -8 -8 -9 14 0 33 -4 42 -7 11 -4 16 -1 16 10
0 9 -3 15 -7 15 -5 -1 -24 -5 -43 -9z"/>
<path d="M1790 105 c0 -8 -4 -15 -10 -15 -5 0 -10 -10 -10 -21 0 -19 4 -21 31
-15 17 3 36 6 41 6 5 0 2 7 -6 16 -9 8 -14 19 -11 24 3 4 -2 11 -11 14 -22 9
-24 8 -24 -9z"/>
<path d="M916 103 c-3 -4 -25 -7 -48 -7 -41 -1 -43 -3 -46 -33 l-3 -33 113 -1
c62 0 152 -2 201 -4 54 -2 87 1 87 7 0 6 -14 8 -37 3 -21 -4 -35 -3 -31 1 8 7
-20 33 -37 34 -5 0 -3 -5 5 -10 12 -8 10 -10 -10 -8 -14 0 -69 -2 -122 -6 -67
-5 -98 -4 -98 3 0 13 0 12 100 12 82 0 64 16 -20 18 -29 1 -40 4 -32 10 11 7
11 9 -1 14 -8 3 -18 3 -21 0z"/>
<path d="M1265 100 c3 -5 -2 -10 -12 -10 -15 0 -16 -2 -3 -10 12 -8 11 -10 -7
-10 -13 0 -23 5 -23 10 0 6 -7 10 -15 10 -24 0 -18 -27 8 -34 51 -13 67 -8 67
24 0 17 -5 30 -11 30 -5 0 -7 -4 -4 -10z"/>
<path d="M54 85 c-4 -8 -16 -15 -28 -15 -15 0 -22 -7 -23 -20 -2 -19 4 -20 92
-19 82 1 94 3 98 20 3 10 0 20 -7 23 -6 2 -2 5 8 5 21 1 14 14 -9 17 -8 1 -18
-8 -21 -21 -4 -15 -12 -22 -22 -20 -9 2 -20 4 -24 4 -4 1 -5 9 -3 19 3 9 -1 4
-9 -13 l-15 -30 -1 33 c0 34 -25 46 -36 17z"/>
<path d="M2220 83 c0 -14 10 -18 45 -20 25 -1 45 3 45 8 0 5 -9 9 -20 9 -11 0
-20 5 -20 10 0 6 -11 10 -25 10 -17 0 -25 -5 -25 -17z"/>
<path d="M2650 81 c0 -32 14 -41 66 -41 41 0 54 4 54 15 0 8 -7 15 -15 15 -8
0 -15 5 -15 10 0 6 -8 10 -17 10 -12 0 -14 -3 -6 -8 7 -4 8 -13 4 -20 -6 -9
-12 -7 -26 8 -19 21 -45 27 -45 11z"/>
<path d="M1730 50 c-8 -5 -25 -10 -37 -10 -13 0 -23 -4 -23 -10 0 -5 18 -10
40 -10 33 0 40 3 40 20 0 23 0 23 -20 10z"/>
<path d="M2225 40 c3 -5 43 -10 87 -10 45 0 79 2 77 5 -10 10 -170 15 -164 5z"/>
</g>
</svg>
