<?xml version="1.0" encoding="UTF-8" standalone="no" ?>
<!DOCTYPE svg PUBLIC "-//W3C//DTD SVG 1.1//EN" "http://www.w3.org/Graphics/SVG/1.1/DTD/svg11.dtd">
<svg xmlns="http://www.w3.org/2000/svg" xmlns:xlink="http://www.w3.org/1999/xlink" version="1.1" width="1080" height="1080" viewBox="0 0 1080 1080" xml:space="preserve">
<desc>Created with Fabric.js 5.2.4</desc>
<defs>
</defs>
<g transform="matrix(1 0 0 1 540 540)" id="068cf0ab-cdb1-44a1-ae8b-a2482acb5b8a"  >
<rect style="stroke: none; stroke-width: 1; stroke-dasharray: none; stroke-linecap: butt; stroke-dashoffset: 0; stroke-linejoin: miter; stroke-miterlimit: 4; fill: rgb(255,255,255); fill-rule: nonzero; opacity: 1; visibility: hidden;" vector-effect="non-scaling-stroke"  x="-540" y="-540" rx="0" ry="0" width="1080" height="1080" />
</g>
<g transform="matrix(1 0 0 1 540 540)" id="f228fb65-9351-4ff7-99d8-9747e7926afd"  >
</g>
<g transform="matrix(1 0 0 1 540 540)"  >
<g style="" vector-effect="non-scaling-stroke"   >
		<g transform="matrix(0.13 0 0 -0.13 -129.48 -111.71)"  >
<path style="stroke: none; stroke-width: 1; stroke-dasharray: none; stroke-linecap: butt; stroke-dashoffset: 0; stroke-linejoin: miter; stroke-miterlimit: 4; fill: rgb(255,255,255); fill-rule: nonzero; opacity: 1;" vector-effect="non-scaling-stroke"  transform=" translate(-526.37, -1711.56)" d="M 503 1717 C 504 1712 516 1703 528 1699 C 546 1692 550 1694 550 1709 C 550 1722 543 1728 525 1728 C 511 1728 501 1723 503 1717 z" stroke-linecap="round" />
</g>
		<g transform="matrix(0.13 0 0 -0.13 2.4 -50.03)"  >
<path style="stroke: none; stroke-width: 1; stroke-dasharray: none; stroke-linecap: butt; stroke-dashoffset: 0; stroke-linejoin: miter; stroke-miterlimit: 4; fill: rgb(255,255,255); fill-rule: nonzero; opacity: 1;" vector-effect="non-scaling-stroke"  transform=" translate(-1515.5, -1249)" d="M 1285 1253 C 1285 1171 1288 1158 1308 1161 C 1312 1162 1412 1161 1530 1160 L 1746 1158 L 1745 1247 L 1745 1335 L 1515 1338 L 1285 1340 L 1285 1253 z M 1415 1310 C 1422 1315 1430 1317 1433 1313 C 1442 1305 1650 1301 1650 1309 C 1650 1313 1659 1316 1669 1316 C 1680 1316 1686 1311 1683 1306 C 1679 1301 1684 1299 1693 1303 C 1712 1310 1718 1292 1716 1235 C 1715 1213 1719 1192 1724 1188 C 1730 1184 1634 1181 1510 1181 C 1386 1181 1292 1184 1300 1188 C 1309 1192 1315 1209 1315 1232 C 1315 1253 1318 1270 1322 1270 C 1326 1270 1327 1277 1323 1286 C 1315 1309 1337 1319 1373 1309 C 1392 1304 1408 1304 1415 1310 z" stroke-linecap="round" />
</g>
		<g transform="matrix(0.13 0 0 -0.13 -47.84 31.6)"  >
<path style="stroke: none; stroke-width: 1; stroke-dasharray: none; stroke-linecap: butt; stroke-dashoffset: 0; stroke-linejoin: miter; stroke-miterlimit: 4; fill: rgb(255,255,255); fill-rule: nonzero; opacity: 1;" vector-effect="non-scaling-stroke"  transform=" translate(-1138.67, -636.74)" d="M 829 1134 C 828 1112 828 1091 829 1086 C 830 1081 804 1080 771 1083 L 711 1088 L 708 1057 C 705 1026 703 1025 654 1022 C 604 1019 602 1018 596 987 C 585 920 510 403 507 371 C 506 352 498 334 491 332 C 481 329 479 333 482 348 C 486 363 484 367 474 363 C 466 360 454 363 446 369 C 435 378 431 377 425 363 C 419 346 418 346 405 363 C 397 375 390 377 385 370 C 382 365 374 362 369 366 C 363 369 350 364 339 354 C 321 338 319 338 298 356 C 285 366 271 381 267 388 C 262 395 251 398 241 395 C 230 392 223 395 223 402 C 223 411 235 414 261 412 C 286 409 297 404 294 395 C 287 379 308 372 340 380 L 365 386 L 337 393 C 315 399 310 405 315 420 C 320 437 316 439 261 438 C 210 437 200 434 190 414 C 183 402 181 386 185 379 C 190 371 189 369 182 374 C 176 378 156 367 139 350 C 121 334 102 320 97 320 C 91 320 90 317 93 313 C 97 310 95 301 88 293 C 72 274 87 263 110 278 C 121 285 138 290 147 291 C 161 291 160 293 142 300 C 130 305 120 314 120 320 C 120 332 130 333 150 321 C 171 307 184 320 164 334 C 148 346 149 347 169 353 C 180 356 188 355 186 351 C 183 347 185 338 191 330 C 197 320 200 319 200 328 C 200 334 208 340 218 341 C 232 341 232 343 215 350 C 193 359 194 359 228 366 C 246 369 253 365 257 350 C 260 339 267 330 272 330 C 278 330 280 323 277 316 C 270 299 299 286 324 296 C 333 299 340 297 340 290 C 340 284 345 282 352 286 C 360 291 358 297 345 306 C 330 317 329 322 340 335 C 347 343 357 350 363 350 C 369 350 365 343 354 334 C 339 322 338 319 352 324 C 361 327 371 324 374 317 C 377 309 383 310 393 323 C 408 341 426 347 415 330 C 407 317 431 281 446 287 C 460 292 462 240 448 223 C 442 215 441 210 447 210 C 460 210 460 178 447 163 C 442 156 441 150 444 150 C 448 150 444 142 434 133 C 419 117 419 116 436 109 C 447 105 458 105 462 109 C 468 115 479 179 480 218 C 480 237 485 240 525 240 C 554 240 570 236 570 228 C 570 218 573 219 579 228 C 584 236 603 246 621 250 C 641 254 620 256 568 252 L 482 247 L 489 281 C 494 308 501 315 520 315 C 545 316 572 292 564 278 C 561 273 552 270 544 270 C 536 270 532 275 535 280 C 544 295 531 292 514 275 C 500 262 504 260 544 260 C 592 260 594 261 604 302 C 609 326 607 329 583 328 C 534 327 516 330 524 337 C 528 341 539 345 547 345 C 557 345 564 354 565 368 C 567 393 566 394 539 380 C 517 368 516 370 532 407 C 539 422 544 442 544 450 C 545 474 592 474 618 450 C 634 434 640 433 640 444 C 640 452 646 461 653 463 C 662 467 662 469 652 469 C 631 470 649 490 671 490 C 681 490 690 494 690 499 C 690 504 682 507 673 506 C 662 506 656 511 659 520 C 661 528 663 550 662 568 C 662 598 672 606 703 601 C 708 600 709 604 706 609 C 702 614 705 620 711 622 C 717 624 720 639 718 655 L 715 685 L 700 653 C 691 632 683 625 678 633 C 667 651 648 628 645 593 C 638 523 626 456 623 468 C 620 475 602 480 579 480 C 558 480 540 485 540 490 C 540 496 545 500 550 500 C 557 500 557 506 550 520 C 540 539 542 540 585 540 C 613 540 629 544 625 550 C 622 556 604 560 585 560 C 557 560 553 563 557 580 C 560 591 566 600 570 600 C 574 600 577 618 576 641 L 574 682 L 617 678 C 648 676 660 679 660 689 C 660 698 653 700 636 696 C 623 693 601 694 588 699 C 575 705 571 709 578 709 C 585 710 590 718 588 728 C 586 742 593 746 628 748 C 684 752 682 770 625 770 C 590 770 582 773 586 785 C 590 793 597 797 603 793 C 608 790 610 792 606 798 C 603 804 605 812 611 816 C 619 821 619 824 610 830 C 603 834 601 847 606 864 C 611 886 617 891 636 887 C 648 885 665 887 672 891 C 680 897 671 900 648 900 C 615 900 610 903 610 924 C 610 949 630 963 654 954 C 672 947 706 980 690 990 C 669 1003 731 1012 825 1011 C 874 1010 916 1007 918 1005 C 920 1003 918 976 913 946 L 903 890 L 938 890 C 973 890 973 890 967 930 C 964 954 966 971 974 974 C 981 977 980 979 972 979 C 952 980 984 1010 1005 1010 C 1020 1010 1022 1001 1018 951 L 1014 892 L 1047 892 C 1069 892 1080 897 1080 907 C 1080 915 1076 918 1070 915 C 1065 912 1060 915 1060 924 C 1060 932 1066 941 1073 943 C 1080 946 1078 949 1068 949 C 1056 950 1050 943 1050 929 C 1050 918 1046 911 1041 914 C 1037 917 1035 931 1038 945 C 1041 962 1049 970 1064 971 C 1083 972 1083 973 1060 980 L 1035 988 L 1063 989 C 1078 990 1090 995 1090 1000 C 1090 1006 1100 1010 1111 1010 C 1132 1010 1133 1007 1127 947 L 1121 884 L 1151 888 C 1179 892 1203 910 1181 910 C 1164 910 1168 979 1185 997 C 1203 1015 1245 1008 1254 985 C 1257 976 1251 961 1240 950 C 1219 929 1213 915 1229 924 C 1234 927 1240 923 1244 915 C 1247 907 1245 900 1239 900 C 1233 900 1232 896 1235 890 C 1246 873 1270 879 1270 900 C 1270 918 1279 919 1515 919 C 1752 920 1760 919 1760 900 C 1760 889 1765 880 1771 880 C 1776 880 1778 885 1774 892 C 1769 899 1774 901 1788 898 C 1806 893 1807 894 1797 911 C 1791 921 1783 930 1779 930 C 1776 930 1773 937 1773 945 C 1773 953 1778 960 1783 960 C 1788 960 1786 968 1779 977 C 1767 991 1767 993 1780 988 C 1788 985 1801 989 1808 996 C 1815 1004 1819 1010 1818 1011 C 1816 1011 1801 1014 1784 1016 L 1752 1021 L 1758 975 L 1763 929 L 1516 932 L 1270 935 L 1270 978 L 1270 1020 L 1048 1021 C 854 1022 684 1032 730 1040 C 738 1041 751 1042 758 1041 C 764 1040 770 1044 770 1050 C 770 1055 775 1060 781 1060 C 786 1060 788 1056 785 1050 C 782 1045 784 1040 789 1040 C 795 1040 800 1046 800 1053 C 800 1061 804 1060 810 1050 C 816 1040 820 1039 820 1048 C 820 1054 827 1060 835 1060 C 843 1060 850 1055 850 1048 C 850 1042 853 1040 856 1043 C 860 1047 857 1056 851 1064 C 844 1072 843 1080 847 1083 C 859 1091 1224 1092 1244 1084 C 1256 1079 1258 1074 1249 1064 C 1243 1057 1241 1046 1245 1040 C 1256 1022 1270 1029 1270 1055 L 1270 1080 L 1510 1080 L 1750 1080 L 1750 1055 C 1750 1028 1772 1022 1800 1040 C 1812 1048 1810 1050 1792 1050 C 1777 1050 1770 1055 1773 1063 C 1776 1072 1829 1075 1985 1077 L 2194 1079 L 2195 1117 L 2196 1155 L 1985 1155 C 1870 1154 1769 1153 1763 1152 C 1756 1151 1750 1141 1750 1130 C 1750 1116 1757 1110 1772 1110 C 1793 1110 1793 1110 1774 1126 C 1757 1140 1757 1141 1773 1136 C 1783 1133 1810 1130 1831 1130 C 1855 1130 1869 1126 1865 1120 C 1862 1115 1866 1110 1875 1110 C 1884 1110 1889 1114 1885 1119 C 1878 1131 1913 1136 1959 1131 C 1982 1129 1988 1125 1979 1119 C 1969 1113 1973 1111 1992 1112 C 2007 1113 2016 1118 2014 1122 C 2005 1137 2109 1134 2125 1119 C 2130 1114 2141 1110 2150 1110 C 2163 1110 2163 1111 2150 1120 C 2142 1125 2140 1130 2145 1130 C 2158 1130 2180 1109 2180 1097 C 2180 1086 1063 1094 1052 1105 C 1048 1108 1052 1115 1059 1119 C 1066 1124 1068 1130 1064 1132 C 1054 1137 1070 1133 1098 1124 C 1112 1119 1113 1120 1100 1129 C 1088 1138 1089 1140 1108 1140 C 1123 1140 1129 1136 1124 1128 C 1119 1121 1121 1120 1131 1125 C 1149 1137 1180 1139 1180 1128 C 1180 1124 1188 1120 1198 1120 C 1212 1120 1213 1122 1200 1130 C 1188 1138 1189 1140 1207 1140 C 1219 1140 1232 1135 1236 1128 C 1241 1121 1238 1120 1229 1125 C 1221 1130 1218 1129 1222 1125 C 1227 1120 1241 1115 1255 1114 C 1276 1112 1280 1116 1280 1136 L 1280 1160 L 1071 1160 C 956 1160 855 1163 846 1166 C 833 1171 830 1164 829 1134 z M 1040 1120 C 1040 1101 1033 1100 939 1100 C 875 1100 841 1104 845 1110 C 848 1116 889 1120 936 1120 C 990 1120 1019 1124 1015 1130 C 1012 1136 1016 1140 1024 1140 C 1033 1140 1040 1131 1040 1120 z M 675 980 C 679 974 668 970 651 970 C 634 970 620 975 620 980 C 620 986 631 990 644 990 C 658 990 672 986 675 980 z M 950 956 C 950 937 945 918 940 915 C 933 911 930 923 931 949 C 934 999 950 1004 950 956 z M 1160 950 C 1160 928 1155 910 1150 910 C 1144 910 1140 927 1142 950 C 1143 972 1148 990 1152 990 C 1156 990 1160 972 1160 950 z" stroke-linecap="round" />
</g>
		<g transform="matrix(0.13 0 0 -0.13 77.94 28.91)"  >
<path style="stroke: none; stroke-width: 1; stroke-dasharray: none; stroke-linecap: butt; stroke-dashoffset: 0; stroke-linejoin: miter; stroke-miterlimit: 4; fill: rgb(255,255,255); fill-rule: nonzero; opacity: 1;" vector-effect="non-scaling-stroke"  transform=" translate(-2082.05, -656.91)" d="M 2223 1073 C 2198 1068 2196 1062 2210 1040 C 2216 1030 2220 1029 2220 1038 C 2220 1044 2230 1050 2243 1050 C 2261 1050 2262 1048 2250 1040 C 2239 1033 2243 1030 2270 1029 C 2359 1025 2173 1011 2052 1012 C 1979 1012 1916 1009 1912 1005 C 1908 1000 1913 1000 1923 1003 C 1936 1008 1940 1004 1940 985 C 1940 971 1945 960 1952 960 C 1960 960 1961 957 1954 950 C 1948 944 1945 926 1948 910 C 1952 884 1957 880 1982 880 L 2013 880 L 2006 940 C 1999 999 1999 1000 2025 1000 C 2048 1000 2050 997 2051 950 C 2053 885 2054 880 2063 880 C 2067 880 2081 880 2094 880 C 2117 880 2118 882 2113 940 L 2107 1000 L 2159 1000 C 2203 1000 2210 997 2210 980 C 2210 969 2215 960 2221 960 C 2227 960 2229 969 2225 980 C 2220 997 2223 1000 2247 1001 C 2294 1003 2315 999 2325 986 C 2331 979 2340 975 2346 977 C 2352 979 2368 976 2381 971 C 2403 962 2402 961 2368 961 C 2347 960 2330 955 2330 949 C 2330 944 2334 941 2339 944 C 2350 951 2413 940 2406 932 C 2403 930 2405 919 2411 909 C 2420 892 2417 890 2375 890 C 2349 890 2331 886 2334 881 C 2338 876 2352 873 2367 875 C 2410 879 2418 872 2415 829 C 2413 804 2418 783 2427 774 C 2440 762 2436 760 2396 760 C 2371 760 2350 756 2350 752 C 2350 747 2369 744 2393 744 C 2429 745 2435 742 2432 726 C 2430 716 2434 703 2442 699 C 2450 693 2437 690 2408 690 C 2381 690 2360 686 2360 681 C 2360 676 2378 674 2400 677 C 2437 682 2440 681 2439 659 C 2437 632 2442 607 2451 600 C 2455 597 2460 586 2464 575 C 2469 557 2465 554 2440 552 C 2395 549 2367 566 2380 590 C 2387 603 2387 611 2380 615 C 2374 619 2370 618 2371 613 C 2376 586 2367 581 2310 583 C 2277 584 2250 582 2250 578 C 2250 573 2237 570 2220 570 C 2204 570 2190 566 2190 560 C 2190 555 2199 550 2209 550 C 2250 550 2236 535 2194 534 C 2170 533 2150 536 2150 541 C 2150 546 2158 550 2168 550 C 2179 550 2181 553 2174 558 C 2167 562 2160 574 2157 585 C 2153 603 2152 603 2151 583 C 2150 569 2144 560 2134 560 C 2124 560 2120 554 2124 545 C 2129 532 2106 530 1952 530 L 1775 530 L 1774 570 L 1773 609 L 1824 613 L 1875 616 L 1823 618 C 1794 619 1770 625 1770 630 C 1770 636 1767 639 1763 639 C 1744 636 1730 641 1730 650 C 1730 656 1739 660 1750 660 C 1761 660 1779 669 1789 679 C 1800 690 1812 695 1816 692 C 1820 688 1820 691 1816 698 C 1812 704 1803 710 1796 710 C 1777 710 1780 740 1799 741 C 1809 741 1811 743 1803 747 C 1779 756 1790 771 1818 768 C 1847 765 1847 764 1849 685 C 1850 635 1850 635 1882 636 L 1915 637 L 1911 704 C 1908 770 1908 772 1931 768 C 1953 765 1955 760 1958 703 L 1961 640 L 1994 640 L 2028 640 L 2023 708 C 2020 745 2016 776 2015 777 C 2014 779 1957 781 1888 782 L 1762 785 L 1766 728 L 1771 670 L 1715 670 C 1673 670 1660 667 1660 655 C 1660 647 1651 640 1641 640 C 1631 640 1620 633 1617 625 C 1608 604 1627 596 1638 616 C 1645 629 1651 630 1666 622 C 1683 612 1683 611 1668 610 C 1659 610 1649 606 1646 601 C 1643 596 1656 592 1674 593 C 1693 593 1707 597 1704 602 C 1701 606 1706 607 1715 604 C 1723 600 1738 604 1748 611 C 1763 624 1764 623 1751 608 C 1742 595 1741 590 1749 590 C 1772 590 1750 573 1720 567 C 1700 563 1690 555 1690 543 C 1691 526 1691 526 1701 543 C 1714 565 1730 565 1730 543 C 1730 528 1732 529 1745 546 C 1759 564 1759 563 1750 538 C 1745 522 1743 510 1746 510 C 1750 510 1746 502 1739 493 C 1729 482 1729 479 1738 484 C 1749 491 1755 479 1751 457 C 1750 452 1755 452 1761 456 C 1769 460 1770 459 1766 451 C 1762 445 1750 442 1739 445 C 1728 449 1720 447 1720 441 C 1720 435 1723 431 1728 431 C 1750 435 1770 429 1765 420 C 1761 414 1754 413 1748 416 C 1741 420 1740 418 1744 411 C 1750 402 1755 402 1766 411 C 1778 421 1782 419 1787 402 C 1790 387 1800 380 1816 380 C 1828 380 1842 376 1845 370 C 1848 365 1845 360 1837 360 C 1829 360 1818 350 1812 338 C 1802 319 1801 318 1803 334 C 1804 344 1800 355 1795 357 C 1788 359 1786 345 1788 321 C 1791 289 1788 281 1773 277 C 1757 273 1757 272 1773 271 C 1782 271 1790 266 1790 260 C 1790 255 1805 251 1823 251 C 1842 252 1847 254 1835 257 C 1789 267 1786 270 1806 286 C 1816 295 1819 299 1813 295 C 1796 287 1797 300 1816 325 C 1826 339 1844 345 1875 346 C 1902 347 1917 344 1914 338 C 1911 333 1917 334 1928 341 C 1957 359 1966 346 1946 316 C 1935 298 1933 289 1942 284 C 1949 280 1950 281 1946 288 C 1941 296 1950 300 1974 300 C 1993 300 2012 305 2015 311 C 2020 318 2028 315 2041 304 C 2051 295 2058 284 2056 281 C 2054 278 2057 264 2064 251 C 2077 228 2077 228 2078 259 C 2078 276 2075 290 2070 290 C 2061 290 2047 329 2049 348 C 2050 354 2046 360 2040 360 C 2035 360 2030 354 2030 346 C 2030 338 2017 330 2000 328 C 1970 323 1959 334 1983 344 C 1991 347 1989 353 1976 364 C 1965 373 1954 377 1951 372 C 1948 368 1926 365 1902 365 C 1870 365 1858 369 1854 383 C 1851 392 1844 398 1839 394 C 1833 391 1826 398 1823 409 C 1819 425 1812 429 1799 425 C 1780 419 1775 428 1779 458 C 1780 466 1775 482 1766 494 C 1751 517 1752 517 1803 516 L 1855 515 L 1858 447 C 1860 396 1864 380 1875 380 C 1883 380 1890 387 1890 395 C 1890 403 1895 410 1900 410 C 1906 410 1910 403 1910 395 C 1910 387 1917 380 1926 380 C 1934 380 1939 384 1935 390 C 1932 395 1927 426 1923 460 C 1918 519 1918 520 1943 520 C 1966 520 1968 516 1972 472 C 1975 429 1973 424 1958 428 C 1945 431 1940 426 1940 411 C 1940 399 1946 390 1955 390 C 1963 390 1970 395 1970 401 C 1970 406 1975 408 1980 405 C 1986 401 1987 393 1984 387 C 1980 380 1980 378 1985 382 C 1989 386 2001 385 2011 379 C 2026 372 2028 373 2024 384 C 2021 392 2025 400 2035 402 C 2049 405 2049 407 2036 425 C 2022 445 2022 445 2023 425 C 2024 414 2018 404 2008 402 C 1996 400 1990 405 1990 418 C 1990 441 2015 464 2030 455 C 2036 451 2040 462 2040 484 C 2040 513 2044 520 2059 520 C 2071 520 2080 511 2084 495 C 2092 463 2121 452 2182 456 C 2208 458 2232 455 2235 450 C 2239 444 2246 442 2251 445 C 2256 448 2257 443 2253 434 C 2248 421 2250 419 2260 425 C 2272 433 2269 516 2254 555 C 2248 569 2256 571 2311 568 C 2354 566 2375 561 2375 553 C 2375 546 2378 540 2383 540 C 2387 540 2413 540 2441 540 C 2488 540 2492 542 2487 561 C 2483 577 2484 579 2496 569 C 2503 563 2507 553 2504 548 C 2500 542 2506 542 2517 549 C 2528 555 2541 556 2545 552 C 2549 548 2551 552 2548 560 C 2545 568 2536 574 2527 574 C 2518 573 2508 581 2505 591 C 2501 602 2494 610 2489 610 C 2483 610 2482 615 2485 620 C 2488 626 2487 630 2482 630 C 2478 630 2468 672 2460 723 C 2430 940 2423 995 2427 1002 C 2429 1006 2405 1010 2373 1012 L 2315 1015 L 2315 1048 C 2315 1078 2313 1080 2280 1079 C 2261 1078 2235 1075 2223 1073 z M 2093 911 C 2087 902 2080 917 2078 943 C 2077 958 2071 970 2065 970 C 2060 970 2062 975 2070 980 C 2082 988 2086 982 2090 952 C 2093 932 2094 913 2093 911 z M 1900 694 C 1900 681 1896 670 1890 670 C 1885 670 1880 684 1880 701 C 1880 718 1884 729 1890 725 C 1896 722 1900 708 1900 694 z M 2225 503 C 2235 489 2237 479 2230 475 C 2225 472 2220 474 2220 481 C 2220 489 2216 489 2205 480 C 2197 473 2189 470 2189 474 C 2188 477 2187 484 2186 489 C 2186 494 2181 502 2176 507 C 2171 511 2170 510 2173 504 C 2177 497 2174 487 2166 481 C 2156 472 2151 473 2147 483 C 2141 500 2150 515 2170 522 C 2195 530 2210 525 2225 503 z" stroke-linecap="round" />
</g>
		<g transform="matrix(0.13 0 0 -0.13 3.16 -18.11)"  >
<path style="stroke: none; stroke-width: 1; stroke-dasharray: none; stroke-linecap: butt; stroke-dashoffset: 0; stroke-linejoin: miter; stroke-miterlimit: 4; fill: rgb(255,255,255); fill-rule: nonzero; opacity: 1;" vector-effect="non-scaling-stroke"  transform=" translate(-1521.2, -1009.56)" d="M 1490 1057 C 1471 1047 1465 1037 1466 1012 C 1467 993 1464 983 1458 986 C 1452 990 1453 983 1460 971 C 1469 952 1479 949 1521 951 C 1555 953 1570 958 1570 967 C 1570 975 1575 978 1582 974 C 1589 969 1590 971 1586 979 C 1580 988 1574 988 1561 976 C 1542 959 1485 954 1475 969 C 1472 975 1483 977 1503 973 C 1531 969 1540 972 1554 991 C 1575 1021 1574 1026 1550 1050 C 1527 1073 1523 1074 1490 1057 z M 1520 1030 C 1510 1024 1509 1020 1518 1020 C 1524 1020 1530 1013 1530 1005 C 1530 997 1523 990 1515 990 C 1506 990 1500 999 1500 1015 C 1500 1032 1505 1040 1518 1040 C 1532 1040 1533 1038 1520 1030 z" stroke-linecap="round" />
</g>
		<g transform="matrix(0.13 0 0 -0.13 9.79 -4.18)"  >
<path style="stroke: none; stroke-width: 1; stroke-dasharray: none; stroke-linecap: butt; stroke-dashoffset: 0; stroke-linejoin: miter; stroke-miterlimit: 4; fill: rgb(255,255,255); fill-rule: nonzero; opacity: 1;" vector-effect="non-scaling-stroke"  transform=" translate(-1570.93, -905.13)" d="M 1830 995 C 1830 987 1838 980 1848 979 C 1860 979 1861 977 1851 973 C 1840 968 1840 966 1851 959 C 1863 951 1862 948 1850 940 C 1840 934 1839 930 1848 930 C 1854 930 1860 925 1860 919 C 1860 914 1856 912 1850 915 C 1844 919 1840 910 1840 896 C 1840 872 1836 870 1799 870 C 1767 870 1759 867 1763 856 C 1768 844 1731 842 1510 843 C 1368 844 1248 842 1244 838 C 1241 834 1241 823 1245 813 C 1253 796 1253 796 1257 813 C 1261 829 1282 830 1511 830 C 1726 830 1760 828 1760 815 C 1760 794 1780 796 1781 818 C 1782 827 1782 837 1782 840 C 1782 843 1793 847 1808 848 C 1823 849 1840 857 1846 865 C 1852 873 1867 880 1879 880 C 1898 880 1900 885 1900 945 L 1900 1010 L 1865 1010 C 1841 1010 1830 1005 1830 995 z" stroke-linecap="round" />
</g>
		<g transform="matrix(0.13 0 0 -0.13 -99.35 -2.06)"  >
<path style="stroke: none; stroke-width: 1; stroke-dasharray: none; stroke-linecap: butt; stroke-dashoffset: 0; stroke-linejoin: miter; stroke-miterlimit: 4; fill: rgb(255,255,255); fill-rule: nonzero; opacity: 1;" vector-effect="non-scaling-stroke"  transform=" translate(-752.39, -889.21)" d="M 720 949 C 685 943 685 943 729 941 L 773 940 L 766 879 C 762 842 762 820 768 824 C 773 827 780 853 782 882 C 785 911 793 936 799 938 C 805 940 810 945 810 948 C 810 957 766 957 720 949 z" stroke-linecap="round" />
</g>
		<g transform="matrix(0.13 0 0 -0.13 102.89 -1.28)"  >
<path style="stroke: none; stroke-width: 1; stroke-dasharray: none; stroke-linecap: butt; stroke-dashoffset: 0; stroke-linejoin: miter; stroke-miterlimit: 4; fill: rgb(255,255,255); fill-rule: nonzero; opacity: 1;" vector-effect="non-scaling-stroke"  transform=" translate(-2269.2, -883.37)" d="M 2220 938 C 2220 934 2225 930 2230 930 C 2236 930 2240 908 2240 881 C 2240 853 2245 828 2252 824 C 2260 819 2262 832 2257 873 L 2251 930 L 2287 930 C 2307 930 2321 932 2318 935 C 2309 945 2220 947 2220 938 z" stroke-linecap="round" />
</g>
		<g transform="matrix(0.13 0 0 -0.13 -62.16 1.07)"  >
<path style="stroke: none; stroke-width: 1; stroke-dasharray: none; stroke-linecap: butt; stroke-dashoffset: 0; stroke-linejoin: miter; stroke-miterlimit: 4; fill: rgb(255,255,255); fill-rule: nonzero; opacity: 1;" vector-effect="non-scaling-stroke"  transform=" translate(-1031.32, -865.71)" d="M 875 869 L 795 864 L 895 861 C 1078 856 1261 858 1267 864 C 1271 867 1256 870 1234 870 C 1213 870 1141 872 1075 873 C 1009 874 919 872 875 869 z" stroke-linecap="round" />
</g>
		<g transform="matrix(0.13 0 0 -0.13 72.27 1.85)"  >
<path style="stroke: none; stroke-width: 1; stroke-dasharray: none; stroke-linecap: butt; stroke-dashoffset: 0; stroke-linejoin: miter; stroke-miterlimit: 4; fill: rgb(255,255,255); fill-rule: nonzero; opacity: 1;" vector-effect="non-scaling-stroke"  transform=" translate(-2039.52, -859.88)" d="M 2005 860 C 2001 854 2016 850 2042 850 C 2073 850 2081 853 2070 860 C 2050 873 2013 873 2005 860 z" stroke-linecap="round" />
</g>
		<g transform="matrix(0.13 0 0 -0.13 88.44 1.85)"  >
<path style="stroke: none; stroke-width: 1; stroke-dasharray: none; stroke-linecap: butt; stroke-dashoffset: 0; stroke-linejoin: miter; stroke-miterlimit: 4; fill: rgb(255,255,255); fill-rule: nonzero; opacity: 1;" vector-effect="non-scaling-stroke"  transform=" translate(-2160.81, -859.88)" d="M 2110 860 C 2099 853 2111 850 2152 850 C 2183 850 2212 855 2215 860 C 2223 873 2130 873 2110 860 z" stroke-linecap="round" />
</g>
		<g transform="matrix(0.13 0 0 -0.13 -102.67 10.56)"  >
<path style="stroke: none; stroke-width: 1; stroke-dasharray: none; stroke-linecap: butt; stroke-dashoffset: 0; stroke-linejoin: miter; stroke-miterlimit: 4; fill: rgb(255,255,255); fill-rule: nonzero; opacity: 1;" vector-effect="non-scaling-stroke"  transform=" translate(-727.5, -794.56)" d="M 667 803 C 663 800 660 792 660 786 C 660 779 663 779 668 787 C 672 793 702 801 735 803 L 795 806 L 734 808 C 701 809 670 807 667 803 z" stroke-linecap="round" />
</g>
		<g transform="matrix(0.13 0 0 -0.13 2.33 15.19)"  >
<path style="stroke: none; stroke-width: 1; stroke-dasharray: none; stroke-linecap: butt; stroke-dashoffset: 0; stroke-linejoin: miter; stroke-miterlimit: 4; fill: rgb(255,255,255); fill-rule: nonzero; opacity: 1;" vector-effect="non-scaling-stroke"  transform=" translate(-1515, -759.79)" d="M 1472 798 C 1465 791 1460 774 1460 760 C 1460 727 1477 710 1510 710 C 1539 710 1570 737 1570 762 C 1570 799 1500 826 1472 798 z M 1526 775 C 1523 765 1527 760 1538 760 C 1553 760 1553 758 1540 750 C 1514 733 1500 739 1500 765 C 1500 781 1506 790 1516 790 C 1526 790 1530 784 1526 775 z" stroke-linecap="round" />
</g>
		<g transform="matrix(0.13 0 0 -0.13 92.44 19.89)"  >
<path style="stroke: none; stroke-width: 1; stroke-dasharray: none; stroke-linecap: butt; stroke-dashoffset: 0; stroke-linejoin: miter; stroke-miterlimit: 4; fill: rgb(255,255,255); fill-rule: nonzero; opacity: 1;" vector-effect="non-scaling-stroke"  transform=" translate(-2190.78, -724.59)" d="M 2233 798 C 2236 789 2223 785 2186 784 C 2055 782 2024 779 2048 770 C 2067 762 2070 754 2070 700 L 2070 640 L 2104 640 L 2137 640 L 2132 708 L 2128 775 L 2184 772 C 2227 769 2241 772 2246 784 C 2250 794 2260 798 2278 794 C 2293 791 2316 793 2330 799 C 2351 807 2344 809 2291 809 C 2244 810 2229 807 2233 798 z" stroke-linecap="round" />
</g>
		<g transform="matrix(0.13 0 0 -0.13 -61 21.24)"  >
<path style="stroke: none; stroke-width: 1; stroke-dasharray: none; stroke-linecap: butt; stroke-dashoffset: 0; stroke-linejoin: miter; stroke-miterlimit: 4; fill: rgb(255,255,255); fill-rule: nonzero; opacity: 1;" vector-effect="non-scaling-stroke"  transform=" translate(-1040, -714.47)" d="M 790 754 C 790 728 793 722 805 726 C 813 730 823 742 826 754 C 829 769 840 776 860 777 L 890 779 L 890 708 C 890 669 893 640 898 644 C 906 653 907 657 909 715 C 909 740 914 760 920 760 C 926 760 928 738 925 706 C 922 665 924 651 935 646 C 946 642 950 649 950 673 C 950 741 962 780 981 780 C 998 780 1000 771 1001 708 C 1002 668 1004 643 1007 653 C 1012 674 1030 676 1030 655 C 1030 645 1039 641 1055 642 C 1078 644 1092 660 1070 660 C 1059 660 1057 693 1066 739 C 1071 760 1078 770 1091 770 C 1108 770 1110 762 1110 703 C 1110 655 1113 639 1120 650 C 1129 663 1131 663 1140 650 C 1148 637 1150 638 1150 653 C 1150 662 1146 670 1140 670 C 1135 670 1130 684 1130 700 C 1130 725 1134 730 1155 730 C 1178 730 1180 726 1180 690 C 1180 668 1183 649 1188 649 C 1192 648 1207 647 1222 646 C 1246 644 1248 647 1244 677 C 1242 696 1245 712 1253 716 C 1259 720 1262 720 1258 715 C 1249 706 1267 680 1281 680 C 1286 680 1290 689 1290 700 C 1290 711 1286 720 1281 720 C 1276 720 1268 730 1264 742 C 1258 761 1257 761 1248 746 C 1243 737 1234 733 1228 736 C 1221 741 1219 737 1223 727 C 1226 717 1225 710 1219 710 C 1213 710 1213 703 1220 690 C 1231 669 1226 650 1209 650 C 1204 650 1200 662 1200 676 C 1200 715 1182 740 1155 740 C 1117 740 1125 757 1167 763 C 1191 767 1207 765 1212 757 C 1218 748 1220 748 1220 758 C 1220 764 1223 769 1228 769 C 1244 766 1260 770 1260 778 C 1260 782 1154 786 1025 786 L 790 788 L 790 754 z" stroke-linecap="round" />
</g>
		<g transform="matrix(0.13 0 0 -0.13 -103.6 26.43)"  >
<path style="stroke: none; stroke-width: 1; stroke-dasharray: none; stroke-linecap: butt; stroke-dashoffset: 0; stroke-linejoin: miter; stroke-miterlimit: 4; fill: rgb(255,255,255); fill-rule: nonzero; opacity: 1;" vector-effect="non-scaling-stroke"  transform=" translate(-720.5, -675.5)" d="M 660 728 C 660 722 679 719 705 722 C 745 725 749 723 745 705 C 730 629 730 613 745 613 C 754 613 759 619 756 625 C 754 632 755 641 760 646 C 764 651 771 673 775 696 L 781 737 L 721 738 C 686 738 660 734 660 728 z" stroke-linecap="round" />
</g>
		<g transform="matrix(0.13 0 0 -0.13 106.2 28.19)"  >
<path style="stroke: none; stroke-width: 1; stroke-dasharray: none; stroke-linecap: butt; stroke-dashoffset: 0; stroke-linejoin: miter; stroke-miterlimit: 4; fill: rgb(255,255,255); fill-rule: nonzero; opacity: 1;" vector-effect="non-scaling-stroke"  transform=" translate(-2294.03, -662.3)" d="M 2270 729 C 2251 726 2241 722 2248 721 C 2255 721 2260 704 2261 678 C 2262 627 2274 581 2282 595 C 2285 601 2284 631 2281 662 L 2274 719 L 2315 722 C 2346 724 2350 726 2330 730 C 2316 733 2289 733 2270 729 z" stroke-linecap="round" />
</g>
		<g transform="matrix(0.13 0 0 -0.13 -87.78 25.26)"  >
<path style="stroke: none; stroke-width: 1; stroke-dasharray: none; stroke-linecap: butt; stroke-dashoffset: 0; stroke-linejoin: miter; stroke-miterlimit: 4; fill: rgb(255,255,255); fill-rule: nonzero; opacity: 1;" vector-effect="non-scaling-stroke"  transform=" translate(-839.17, -684.32)" d="M 813 714 C 797 703 798 702 823 704 C 838 706 850 704 850 701 C 849 690 823 660 818 665 C 816 668 813 663 813 653 C 813 641 818 642 833 661 C 844 674 858 684 864 683 C 870 681 876 689 876 699 C 876 723 837 732 813 714 z" stroke-linecap="round" />
</g>
		<g transform="matrix(0.13 0 0 -0.13 -5.72 31.61)"  >
<path style="stroke: none; stroke-width: 1; stroke-dasharray: none; stroke-linecap: butt; stroke-dashoffset: 0; stroke-linejoin: miter; stroke-miterlimit: 4; fill: rgb(255,255,255); fill-rule: nonzero; opacity: 1;" vector-effect="non-scaling-stroke"  transform=" translate(-1454.57, -636.65)" d="M 1390 673 C 1390 667 1378 665 1364 668 C 1348 671 1334 667 1329 659 C 1324 651 1320 650 1320 656 C 1320 663 1307 667 1292 667 C 1275 666 1263 660 1263 652 C 1263 644 1271 640 1282 644 C 1296 647 1300 644 1296 634 C 1293 626 1295 620 1300 620 C 1306 620 1310 625 1310 630 C 1310 636 1315 640 1321 640 C 1326 640 1328 636 1325 630 C 1322 625 1327 620 1337 620 C 1347 620 1366 613 1378 604 C 1391 595 1400 593 1400 600 C 1400 606 1390 615 1378 620 C 1365 625 1360 629 1365 630 C 1371 631 1366 635 1355 640 C 1338 648 1338 649 1362 647 C 1377 646 1387 643 1384 639 C 1382 635 1387 629 1396 626 C 1408 621 1411 624 1406 636 C 1401 649 1403 650 1412 643 C 1419 637 1450 634 1480 635 C 1510 637 1542 634 1552 629 C 1564 622 1570 623 1570 631 C 1570 637 1579 640 1590 637 C 1601 634 1610 636 1610 641 C 1610 646 1616 650 1624 650 C 1632 650 1642 654 1645 660 C 1648 665 1645 667 1637 664 C 1629 661 1619 664 1615 669 C 1612 675 1603 677 1597 673 C 1579 662 1417 662 1403 673 C 1395 679 1390 679 1390 673 z" stroke-linecap="round" />
</g>
		<g transform="matrix(0.13 0 0 -0.13 -64.68 38.46)"  >
<path style="stroke: none; stroke-width: 1; stroke-dasharray: none; stroke-linecap: butt; stroke-dashoffset: 0; stroke-linejoin: miter; stroke-miterlimit: 4; fill: rgb(255,255,255); fill-rule: nonzero; opacity: 1;" vector-effect="non-scaling-stroke"  transform=" translate(-1012.39, -585.3)" d="M 775 619 C 781 611 785 610 873 610 C 905 611 929 607 926 602 C 923 597 936 594 955 596 C 994 599 1014 582 981 573 C 942 563 970 552 1027 555 C 1059 557 1090 554 1096 549 C 1104 542 1111 543 1115 550 C 1119 556 1114 568 1104 576 C 1086 591 1086 591 1105 585 C 1121 580 1122 581 1113 591 C 1104 600 1098 600 1087 591 C 1079 585 1065 582 1056 586 C 1047 589 1034 587 1027 582 C 1017 574 1014 576 1013 589 C 1012 606 1040 614 1090 610 C 1098 609 1135 609 1172 609 L 1240 610 L 1230 584 C 1224 569 1222 555 1225 552 C 1233 544 1237 552 1244 590 L 1250 626 L 1107 625 C 1028 624 959 620 953 617 C 946 613 939 614 935 620 C 931 626 912 628 892 625 C 843 618 840 618 803 623 C 785 625 773 624 775 619 z" stroke-linecap="round" />
</g>
		<g transform="matrix(0.13 0 0 -0.13 75.14 34.1)"  >
<path style="stroke: none; stroke-width: 1; stroke-dasharray: none; stroke-linecap: butt; stroke-dashoffset: 0; stroke-linejoin: miter; stroke-miterlimit: 4; fill: rgb(255,255,255); fill-rule: nonzero; opacity: 1;" vector-effect="non-scaling-stroke"  transform=" translate(-2061.04, -617.96)" d="M 2020 620 L 1875 614 L 2064 612 C 2168 611 2250 613 2247 617 C 2238 626 2195 626 2020 620 z" stroke-linecap="round" />
</g>
		<g transform="matrix(0.13 0 0 -0.13 195.33 40.39)"  >
<path style="stroke: none; stroke-width: 1; stroke-dasharray: none; stroke-linecap: butt; stroke-dashoffset: 0; stroke-linejoin: miter; stroke-miterlimit: 4; fill: rgb(255,255,255); fill-rule: nonzero; opacity: 1;" vector-effect="non-scaling-stroke"  transform=" translate(-2962.44, -570.8)" d="M 2963 613 C 2956 611 2950 602 2950 594 C 2950 586 2944 583 2933 587 C 2921 591 2922 587 2938 576 C 2950 566 2960 550 2960 539 C 2960 516 2981 518 2988 541 C 2991 552 2990 552 2981 540 C 2972 528 2970 530 2970 553 C 2970 568 2977 583 2985 586 C 2993 590 3000 598 3000 606 C 3000 620 2986 623 2963 613 z" stroke-linecap="round" />
</g>
		<g transform="matrix(0.13 0 0 -0.13 170.36 61.01)"  >
<path style="stroke: none; stroke-width: 1; stroke-dasharray: none; stroke-linecap: butt; stroke-dashoffset: 0; stroke-linejoin: miter; stroke-miterlimit: 4; fill: rgb(255,255,255); fill-rule: nonzero; opacity: 1;" vector-effect="non-scaling-stroke"  transform=" translate(-2775.18, -416.16)" d="M 2846 564 C 2837 558 2830 545 2830 536 C 2830 527 2822 520 2810 520 C 2799 520 2790 527 2790 535 C 2790 543 2784 547 2776 544 C 2765 540 2768 533 2786 513 C 2799 499 2810 481 2810 475 C 2810 463 2767 450 2727 449 C 2713 449 2711 446 2719 437 C 2733 419 2717 398 2696 406 C 2682 411 2681 415 2692 421 C 2700 426 2701 432 2695 439 C 2688 445 2679 444 2667 435 C 2649 422 2649 421 2669 408 C 2681 401 2691 386 2691 375 C 2692 358 2693 358 2697 373 C 2699 382 2705 390 2710 390 C 2715 390 2731 402 2746 417 C 2762 433 2775 440 2777 433 C 2782 419 2733 362 2710 355 C 2700 352 2690 340 2687 329 C 2684 317 2677 311 2672 314 C 2667 317 2657 313 2650 305 C 2639 292 2643 290 2677 290 C 2723 290 2734 282 2718 263 C 2708 251 2711 251 2733 261 C 2748 268 2760 277 2760 282 C 2760 286 2776 290 2796 290 C 2816 290 2829 294 2825 300 C 2822 305 2813 307 2805 303 C 2797 300 2790 302 2790 308 C 2790 313 2778 315 2764 312 C 2743 308 2739 310 2744 321 C 2748 329 2745 327 2737 318 C 2729 308 2717 300 2710 300 C 2701 300 2702 305 2713 318 C 2723 328 2727 340 2723 343 C 2720 347 2724 350 2732 350 C 2740 350 2759 359 2772 370 C 2786 380 2800 387 2803 383 C 2806 380 2816 385 2825 394 C 2834 403 2838 410 2833 410 C 2828 410 2819 405 2812 398 C 2803 389 2800 389 2800 399 C 2800 407 2808 419 2818 427 C 2827 435 2830 439 2823 436 C 2817 432 2809 434 2806 439 C 2803 444 2814 453 2831 459 C 2858 468 2860 472 2850 490 C 2844 502 2841 516 2844 523 C 2847 532 2849 532 2849 523 C 2850 516 2857 510 2865 510 C 2873 510 2877 504 2874 496 C 2871 488 2872 474 2878 465 C 2884 453 2887 463 2889 501 C 2890 530 2895 559 2901 567 C 2910 577 2907 580 2887 578 C 2873 577 2854 571 2846 564 z" stroke-linecap="round" />
</g>
		<g transform="matrix(0.13 0 0 -0.13 14.64 43.3)"  >
<path style="stroke: none; stroke-width: 1; stroke-dasharray: none; stroke-linecap: butt; stroke-dashoffset: 0; stroke-linejoin: miter; stroke-miterlimit: 4; fill: rgb(255,255,255); fill-rule: nonzero; opacity: 1;" vector-effect="non-scaling-stroke"  transform=" translate(-1607.29, -549.02)" d="M 1540 563 C 1548 560 1561 551 1568 542 C 1578 529 1580 529 1580 541 C 1580 553 1582 553 1590 540 C 1598 527 1600 528 1600 544 C 1600 556 1605 560 1616 556 C 1625 553 1644 548 1658 545 C 1680 541 1681 541 1665 548 C 1645 557 1645 557 1665 562 C 1676 565 1649 567 1605 567 C 1561 567 1532 565 1540 563 z" stroke-linecap="round" />
</g>
		<g transform="matrix(0.13 0 0 -0.13 192.27 50.31)"  >
<path style="stroke: none; stroke-width: 1; stroke-dasharray: none; stroke-linecap: butt; stroke-dashoffset: 0; stroke-linejoin: miter; stroke-miterlimit: 4; fill: rgb(255,255,255); fill-rule: nonzero; opacity: 1;" vector-effect="non-scaling-stroke"  transform=" translate(-2939.49, -496.46)" d="M 2918 547 C 2909 539 2903 525 2905 514 C 2907 504 2909 492 2909 488 C 2910 483 2922 480 2937 480 L 2964 480 L 2942 460 C 2913 432 2914 425 2944 447 C 2958 457 2971 473 2973 482 C 2977 496 2973 498 2950 494 C 2935 490 2919 493 2916 499 C 2911 506 2918 510 2932 511 C 2945 511 2949 514 2943 517 C 2936 519 2930 528 2930 536 C 2930 545 2935 548 2940 545 C 2946 542 2950 544 2950 549 C 2950 563 2939 562 2918 547 z" stroke-linecap="round" />
</g>
		<g transform="matrix(0.13 0 0 -0.13 1.68 51.71)"  >
<path style="stroke: none; stroke-width: 1; stroke-dasharray: none; stroke-linecap: butt; stroke-dashoffset: 0; stroke-linejoin: miter; stroke-miterlimit: 4; fill: rgb(255,255,255); fill-rule: nonzero; opacity: 1;" vector-effect="non-scaling-stroke"  transform=" translate(-1510.09, -485.93)" d="M 1506 539 C 1465 528 1450 503 1464 468 C 1476 436 1513 421 1539 437 C 1548 443 1557 462 1560 481 C 1567 526 1545 549 1506 539 z M 1531 520 C 1546 511 1548 507 1538 496 C 1531 489 1519 485 1513 487 C 1506 490 1500 488 1500 482 C 1500 477 1510 469 1523 465 C 1544 458 1543 457 1516 453 C 1489 449 1458 471 1480 478 C 1485 480 1486 488 1483 497 C 1480 505 1483 516 1491 521 C 1509 532 1508 532 1531 520 z" stroke-linecap="round" />
</g>
		<g transform="matrix(0.13 0 0 -0.13 -44.41 55.94)"  >
<path style="stroke: none; stroke-width: 1; stroke-dasharray: none; stroke-linecap: butt; stroke-dashoffset: 0; stroke-linejoin: miter; stroke-miterlimit: 4; fill: rgb(255,255,255); fill-rule: nonzero; opacity: 1;" vector-effect="non-scaling-stroke"  transform=" translate(-1164.46, -454.2)" d="M 1128 532 C 1105 529 1100 524 1100 501 C 1100 485 1097 452 1094 426 C 1087 381 1088 380 1114 382 C 1139 384 1140 387 1140 442 C 1140 474 1136 499 1131 498 C 1126 496 1120 499 1119 505 C 1117 510 1140 516 1172 517 C 1227 520 1229 519 1223 498 C 1220 485 1217 458 1215 438 C 1214 417 1208 395 1202 388 C 1194 378 1197 375 1215 375 C 1227 375 1236 380 1234 385 C 1227 406 1223 470 1229 470 C 1233 470 1237 484 1238 501 C 1240 530 1239 531 1208 529 C 1190 527 1170 528 1165 531 C 1159 534 1143 534 1128 532 z M 1130 450 C 1130 434 1126 420 1121 420 C 1116 420 1112 434 1112 450 C 1113 467 1117 480 1122 480 C 1126 480 1130 467 1130 450 z" stroke-linecap="round" />
</g>
		<g transform="matrix(0.13 0 0 -0.13 -77.92 55.83)"  >
<path style="stroke: none; stroke-width: 1; stroke-dasharray: none; stroke-linecap: butt; stroke-dashoffset: 0; stroke-linejoin: miter; stroke-miterlimit: 4; fill: rgb(255,255,255); fill-rule: nonzero; opacity: 1;" vector-effect="non-scaling-stroke"  transform=" translate(-913.11, -455)" d="M 873 455 L 872 380 L 899 380 C 917 380 927 385 927 395 C 927 403 922 410 916 409 C 889 406 885 413 888 466 L 892 522 L 925 518 C 944 516 956 518 954 522 C 951 526 932 530 912 530 L 875 530 L 873 455 z" stroke-linecap="round" />
</g>
		<g transform="matrix(0.13 0 0 -0.13 -64.01 55.83)"  >
<path style="stroke: none; stroke-width: 1; stroke-dasharray: none; stroke-linecap: butt; stroke-dashoffset: 0; stroke-linejoin: miter; stroke-miterlimit: 4; fill: rgb(255,255,255); fill-rule: nonzero; opacity: 1;" vector-effect="non-scaling-stroke"  transform=" translate(-1017.45, -455)" d="M 990 501 C 990 486 987 452 984 426 C 980 396 981 380 988 380 C 994 380 1001 388 1003 398 C 1007 414 1008 414 1009 398 C 1009 388 1017 380 1025 380 C 1039 380 1047 408 1052 488 C 1055 529 1055 530 1023 530 C 993 530 990 527 990 501 z M 1020 470 C 1020 443 1016 420 1010 420 C 1005 420 1000 443 1000 470 C 1000 498 1005 520 1010 520 C 1016 520 1020 498 1020 470 z" stroke-linecap="round" />
</g>
		<g transform="matrix(0.13 0 0 -0.13 134.09 62.33)"  >
<path style="stroke: none; stroke-width: 1; stroke-dasharray: none; stroke-linecap: butt; stroke-dashoffset: 0; stroke-linejoin: miter; stroke-miterlimit: 4; fill: rgb(255,255,255); fill-rule: nonzero; opacity: 1;" vector-effect="non-scaling-stroke"  transform=" translate(-2503.17, -406.29)" d="M 2530 505 C 2522 483 2514 480 2468 479 C 2439 478 2407 478 2398 479 C 2388 480 2380 476 2380 470 C 2380 459 2484 459 2519 470 C 2528 473 2536 464 2541 445 C 2548 420 2547 418 2537 431 C 2527 444 2523 445 2512 434 C 2503 424 2508 416 2543 396 C 2566 382 2579 370 2572 370 C 2564 370 2560 364 2563 358 C 2565 351 2578 347 2591 348 L 2615 352 L 2590 324 C 2576 308 2573 302 2584 310 C 2602 324 2602 323 2595 302 C 2589 280 2590 279 2609 289 C 2621 296 2628 308 2626 318 C 2612 385 2606 399 2589 403 C 2578 406 2572 404 2576 399 C 2583 387 2569 388 2550 400 C 2542 405 2540 410 2546 410 C 2553 410 2557 426 2556 449 C 2556 473 2551 486 2545 482 C 2540 479 2543 486 2553 497 C 2562 508 2567 520 2563 523 C 2551 536 2539 530 2530 505 z" stroke-linecap="round" />
</g>
		<g transform="matrix(0.13 0 0 -0.13 -197 51.34)"  >
<path style="stroke: none; stroke-width: 1; stroke-dasharray: none; stroke-linecap: butt; stroke-dashoffset: 0; stroke-linejoin: miter; stroke-miterlimit: 4; fill: rgb(255,255,255); fill-rule: nonzero; opacity: 1;" vector-effect="non-scaling-stroke"  transform=" translate(-19.99, -488.71)" d="M 1 492 C 0 475 5 469 17 472 C 26 474 35 481 38 489 C 41 499 38 501 27 497 C 18 494 9 496 6 503 C 4 510 1 505 1 492 z" stroke-linecap="round" />
</g>
		<g transform="matrix(0.13 0 0 -0.13 -102.54 57.96)"  >
<path style="stroke: none; stroke-width: 1; stroke-dasharray: none; stroke-linecap: butt; stroke-dashoffset: 0; stroke-linejoin: miter; stroke-miterlimit: 4; fill: rgb(255,255,255); fill-rule: nonzero; opacity: 1;" vector-effect="non-scaling-stroke"  transform=" translate(-728.43, -439.02)" d="M 730 501 C 721 497 715 483 716 465 C 716 449 713 423 709 408 C 705 393 705 378 710 375 C 721 368 726 386 729 440 C 731 465 737 488 743 492 C 759 502 748 509 730 501 z" stroke-linecap="round" />
</g>
		<g transform="matrix(0.13 0 0 -0.13 110.91 56.95)"  >
<path style="stroke: none; stroke-width: 1; stroke-dasharray: none; stroke-linecap: butt; stroke-dashoffset: 0; stroke-linejoin: miter; stroke-miterlimit: 4; fill: rgb(255,255,255); fill-rule: nonzero; opacity: 1;" vector-effect="non-scaling-stroke"  transform=" translate(-2329.29, -446.61)" d="M 2284 463 C 2287 442 2290 417 2290 407 C 2290 397 2294 391 2299 394 C 2304 397 2305 420 2303 444 L 2298 489 L 2346 493 C 2395 496 2395 496 2336 498 L 2277 500 L 2284 463 z" stroke-linecap="round" />
</g>
		<g transform="matrix(0.13 0 0 -0.13 -192.1 56.57)"  >
<path style="stroke: none; stroke-width: 1; stroke-dasharray: none; stroke-linecap: butt; stroke-dashoffset: 0; stroke-linejoin: miter; stroke-miterlimit: 4; fill: rgb(255,255,255); fill-rule: nonzero; opacity: 1;" vector-effect="non-scaling-stroke"  transform=" translate(-56.78, -449.45)" d="M 25 460 C 15 444 68 424 82 438 C 96 452 93 455 58 464 C 43 467 28 466 25 460 z" stroke-linecap="round" />
</g>
		<g transform="matrix(0.13 0 0 -0.13 -193.51 68.47)"  >
<path style="stroke: none; stroke-width: 1; stroke-dasharray: none; stroke-linecap: butt; stroke-dashoffset: 0; stroke-linejoin: miter; stroke-miterlimit: 4; fill: rgb(255,255,255); fill-rule: nonzero; opacity: 1;" vector-effect="non-scaling-stroke"  transform=" translate(-46.17, -360.18)" d="M 0 425 C 0 410 4 401 10 405 C 22 412 60 402 60 391 C 60 387 45 385 28 387 L -5 390 L 29 377 C 79 358 83 335 36 343 L -1 349 L 1 311 C 3 283 8 274 22 273 C 38 271 44 281 41 302 C 41 306 51 317 64 327 C 77 338 91 360 94 377 C 101 406 100 408 61 414 C 38 417 21 425 23 431 C 24 437 19 445 13 447 C 4 450 0 442 0 425 z" stroke-linecap="round" />
</g>
		<g transform="matrix(0.13 0 0 -0.13 148.55 59.42)"  >
<path style="stroke: none; stroke-width: 1; stroke-dasharray: none; stroke-linecap: butt; stroke-dashoffset: 0; stroke-linejoin: miter; stroke-miterlimit: 4; fill: rgb(255,255,255); fill-rule: nonzero; opacity: 1;" vector-effect="non-scaling-stroke"  transform=" translate(-2611.64, -428.13)" d="M 2590 434 C 2590 416 2618 404 2631 417 C 2637 423 2631 431 2615 438 C 2594 448 2590 447 2590 434 z" stroke-linecap="round" />
</g>
		<g transform="matrix(0.13 0 0 -0.13 79.4 79.89)"  >
<path style="stroke: none; stroke-width: 1; stroke-dasharray: none; stroke-linecap: butt; stroke-dashoffset: 0; stroke-linejoin: miter; stroke-miterlimit: 4; fill: rgb(255,255,255); fill-rule: nonzero; opacity: 1;" vector-effect="non-scaling-stroke"  transform=" translate(-2093.03, -274.55)" d="M 2050 434 C 2050 428 2057 417 2066 409 C 2076 401 2080 387 2077 370 C 2074 356 2076 338 2081 330 C 2088 318 2089 320 2088 337 C 2086 349 2090 359 2095 358 C 2101 358 2104 354 2103 350 C 2092 310 2089 260 2098 260 C 2103 260 2108 248 2107 233 C 2104 158 2111 110 2123 110 C 2144 110 2138 250 2117 261 C 2101 271 2103 322 2120 328 C 2125 330 2127 355 2124 383 C 2118 442 2110 459 2110 412 C 2110 394 2106 380 2100 380 C 2095 380 2090 390 2090 402 C 2090 414 2087 420 2083 417 C 2080 413 2071 418 2064 428 C 2057 437 2050 440 2050 434 z" stroke-linecap="round" />
</g>
		<g transform="matrix(0.13 0 0 -0.13 -120.04 64.83)"  >
<path style="stroke: none; stroke-width: 1; stroke-dasharray: none; stroke-linecap: butt; stroke-dashoffset: 0; stroke-linejoin: miter; stroke-miterlimit: 4; fill: rgb(255,255,255); fill-rule: nonzero; opacity: 1;" vector-effect="non-scaling-stroke"  transform=" translate(-597.17, -387.55)" d="M 582 398 C 572 371 573 363 584 352 C 596 339 600 343 609 376 C 623 426 623 430 607 430 C 600 430 589 416 582 398 z" stroke-linecap="round" />
</g>
		<g transform="matrix(0.13 0 0 -0.13 -95.11 63.95)"  >
<path style="stroke: none; stroke-width: 1; stroke-dasharray: none; stroke-linecap: butt; stroke-dashoffset: 0; stroke-linejoin: miter; stroke-miterlimit: 4; fill: rgb(255,255,255); fill-rule: nonzero; opacity: 1;" vector-effect="non-scaling-stroke"  transform=" translate(-784.17, -394.08)" d="M 783 416 C 784 410 780 406 773 407 C 758 410 763 383 780 367 C 788 361 791 359 787 364 C 783 369 785 379 791 387 C 797 394 799 400 795 400 C 791 400 793 406 799 413 C 807 423 806 427 795 427 C 788 427 782 422 783 416 z" stroke-linecap="round" />
</g>
		<g transform="matrix(0.13 0 0 -0.13 154.31 65.62)"  >
<path style="stroke: none; stroke-width: 1; stroke-dasharray: none; stroke-linecap: butt; stroke-dashoffset: 0; stroke-linejoin: miter; stroke-miterlimit: 4; fill: rgb(255,255,255); fill-rule: nonzero; opacity: 1;" vector-effect="non-scaling-stroke"  transform=" translate(-2654.85, -381.58)" d="M 2630 400 C 2630 386 2670 347 2678 354 C 2687 363 2658 410 2643 410 C 2636 410 2630 406 2630 400 z" stroke-linecap="round" />
</g>
		<g transform="matrix(0.13 0 0 -0.13 -9.09 65.52)"  >
<path style="stroke: none; stroke-width: 1; stroke-dasharray: none; stroke-linecap: butt; stroke-dashoffset: 0; stroke-linejoin: miter; stroke-miterlimit: 4; fill: rgb(255,255,255); fill-rule: nonzero; opacity: 1;" vector-effect="non-scaling-stroke"  transform=" translate(-1429.33, -382.36)" d="M 1425 390 C 1430 382 1418 380 1386 381 C 1361 383 1338 381 1334 378 C 1326 369 1462 364 1496 371 L 1525 378 L 1498 379 C 1459 380 1457 381 1436 392 C 1423 399 1420 399 1425 390 z" stroke-linecap="round" />
</g>
		<g transform="matrix(0.13 0 0 -0.13 21.55 65.35)"  >
<path style="stroke: none; stroke-width: 1; stroke-dasharray: none; stroke-linecap: butt; stroke-dashoffset: 0; stroke-linejoin: miter; stroke-miterlimit: 4; fill: rgb(255,255,255); fill-rule: nonzero; opacity: 1;" vector-effect="non-scaling-stroke"  transform=" translate(-1659.1, -383.61)" d="M 1684 390 C 1678 384 1643 379 1606 379 C 1569 378 1541 375 1545 372 C 1554 363 1763 369 1773 379 C 1777 384 1760 385 1734 382 C 1701 379 1689 381 1694 389 C 1703 403 1697 403 1684 390 z" stroke-linecap="round" />
</g>
		<g transform="matrix(0.13 0 0 -0.13 95.58 87.83)"  >
<path style="stroke: none; stroke-width: 1; stroke-dasharray: none; stroke-linecap: butt; stroke-dashoffset: 0; stroke-linejoin: miter; stroke-miterlimit: 4; fill: rgb(255,255,255); fill-rule: nonzero; opacity: 1;" vector-effect="non-scaling-stroke"  transform=" translate(-2214.32, -215)" d="M 2194 343 C 2200 311 2206 293 2208 303 C 2210 312 2216 320 2221 320 C 2227 320 2229 311 2225 300 C 2220 284 2222 281 2236 287 C 2248 291 2251 290 2246 282 C 2236 266 2193 267 2188 282 C 2185 290 2178 286 2171 271 C 2162 256 2162 250 2169 255 C 2181 262 2178 221 2166 201 C 2162 196 2164 189 2169 186 C 2174 183 2177 155 2175 125 C 2173 85 2177 67 2187 61 C 2200 54 2200 52 2185 46 C 2176 43 2163 43 2158 47 C 2151 50 2150 48 2154 42 C 2158 35 2173 30 2187 30 C 2211 30 2212 32 2205 76 C 2199 119 2200 121 2219 115 C 2231 111 2240 113 2240 119 C 2240 125 2237 129 2233 129 C 2210 125 2198 132 2204 145 C 2207 153 2204 160 2197 160 C 2189 160 2189 163 2199 169 C 2210 176 2210 179 2199 184 C 2189 188 2188 191 2197 196 C 2204 199 2206 208 2203 217 C 2198 229 2201 231 2211 226 C 2219 222 2216 226 2206 234 C 2180 255 2189 262 2228 251 C 2257 242 2260 243 2260 265 C 2260 278 2266 290 2273 293 C 2280 296 2278 300 2265 305 C 2238 316 2200 351 2200 365 C 2200 371 2210 376 2221 376 C 2233 375 2245 381 2247 388 C 2250 396 2240 400 2218 400 L 2183 400 L 2194 343 z" stroke-linecap="round" />
</g>
		<g transform="matrix(0.13 0 0 -0.13 182.23 69.56)"  >
<path style="stroke: none; stroke-width: 1; stroke-dasharray: none; stroke-linecap: butt; stroke-dashoffset: 0; stroke-linejoin: miter; stroke-miterlimit: 4; fill: rgb(255,255,255); fill-rule: nonzero; opacity: 1;" vector-effect="non-scaling-stroke"  transform=" translate(-2864.24, -352.04)" d="M 2872 388 C 2867 381 2864 360 2866 342 C 2868 321 2866 311 2859 316 C 2853 319 2851 328 2854 336 C 2857 344 2855 350 2850 350 C 2835 350 2838 324 2855 310 C 2867 300 2871 302 2879 321 C 2884 336 2884 350 2878 358 C 2871 366 2871 375 2880 385 C 2887 393 2890 400 2887 400 C 2885 400 2878 394 2872 388 z" stroke-linecap="round" />
</g>
		<g transform="matrix(0.13 0 0 -0.13 109.73 70.81)"  >
<path style="stroke: none; stroke-width: 1; stroke-dasharray: none; stroke-linecap: butt; stroke-dashoffset: 0; stroke-linejoin: miter; stroke-miterlimit: 4; fill: rgb(255,255,255); fill-rule: nonzero; opacity: 1;" vector-effect="non-scaling-stroke"  transform=" translate(-2320.48, -342.68)" d="M 2266 364 C 2255 336 2260 323 2284 312 C 2303 303 2309 304 2314 316 C 2317 324 2327 330 2335 330 C 2344 330 2348 326 2345 320 C 2342 315 2346 310 2355 310 C 2364 310 2368 315 2365 320 C 2362 326 2367 330 2377 331 C 2387 332 2375 336 2350 341 C 2314 348 2304 347 2297 335 C 2285 313 2271 326 2276 355 C 2281 383 2275 388 2266 364 z" stroke-linecap="round" />
</g>
		<g transform="matrix(0.13 0 0 -0.13 -59.33 69.13)"  >
<path style="stroke: none; stroke-width: 1; stroke-dasharray: none; stroke-linecap: butt; stroke-dashoffset: 0; stroke-linejoin: miter; stroke-miterlimit: 4; fill: rgb(255,255,255); fill-rule: nonzero; opacity: 1;" vector-effect="non-scaling-stroke"  transform=" translate(-1052.5, -355.24)" d="M 955 359 L 905 353 L 960 351 C 1104 344 1200 345 1200 352 C 1200 361 1194 362 1085 364 C 1041 365 983 363 955 359 z" stroke-linecap="round" />
</g>
		<g transform="matrix(0.13 0 0 -0.13 132.64 75.12)"  >
<path style="stroke: none; stroke-width: 1; stroke-dasharray: none; stroke-linecap: butt; stroke-dashoffset: 0; stroke-linejoin: miter; stroke-miterlimit: 4; fill: rgb(255,255,255); fill-rule: nonzero; opacity: 1;" vector-effect="non-scaling-stroke"  transform=" translate(-2492.29, -310.32)" d="M 2475 360 C 2472 354 2458 353 2444 356 C 2427 361 2420 358 2420 347 C 2420 339 2414 330 2408 327 C 2401 325 2398 319 2403 315 C 2407 310 2416 312 2422 318 C 2431 327 2438 326 2452 313 C 2462 304 2470 300 2470 304 C 2470 308 2484 302 2500 290 C 2517 278 2530 272 2530 276 C 2530 280 2539 275 2549 266 C 2581 237 2599 252 2568 283 C 2554 297 2545 312 2548 315 C 2552 318 2547 318 2537 315 C 2522 309 2523 306 2543 289 L 2565 270 L 2538 283 C 2512 294 2492 320 2509 320 C 2513 320 2517 327 2517 335 C 2517 344 2511 349 2504 346 C 2496 343 2493 346 2497 356 C 2503 372 2485 376 2475 360 z" stroke-linecap="round" />
</g>
		<g transform="matrix(0.13 0 0 -0.13 -36.09 73.12)"  >
<path style="stroke: none; stroke-width: 1; stroke-dasharray: none; stroke-linecap: butt; stroke-dashoffset: 0; stroke-linejoin: miter; stroke-miterlimit: 4; fill: rgb(255,255,255); fill-rule: nonzero; opacity: 1;" vector-effect="non-scaling-stroke"  transform=" translate(-1226.85, -325.33)" d="M 1218 353 C 1216 348 1217 329 1221 310 C 1224 290 1228 284 1229 295 C 1231 306 1233 325 1236 338 C 1240 358 1226 370 1218 353 z" stroke-linecap="round" />
</g>
		<g transform="matrix(0.13 0 0 -0.13 -108.31 86.26)"  >
<path style="stroke: none; stroke-width: 1; stroke-dasharray: none; stroke-linecap: butt; stroke-dashoffset: 0; stroke-linejoin: miter; stroke-miterlimit: 4; fill: rgb(255,255,255); fill-rule: nonzero; opacity: 1;" vector-effect="non-scaling-stroke"  transform=" translate(-685.15, -226.76)" d="M 640 338 C 640 333 656 330 675 330 C 707 330 709 328 701 308 C 696 295 692 281 692 275 C 692 270 683 262 673 258 C 658 251 658 250 677 254 C 690 256 697 253 695 246 C 693 240 689 207 685 174 C 681 128 683 111 692 108 C 702 104 705 121 706 177 C 707 229 712 255 721 261 C 729 266 730 270 725 270 C 711 270 707 317 720 325 C 742 339 728 347 685 346 C 660 345 640 342 640 338 z" stroke-linecap="round" />
</g>
		<g transform="matrix(0.13 0 0 -0.13 -171.64 79.01)"  >
<path style="stroke: none; stroke-width: 1; stroke-dasharray: none; stroke-linecap: butt; stroke-dashoffset: 0; stroke-linejoin: miter; stroke-miterlimit: 4; fill: rgb(255,255,255); fill-rule: nonzero; opacity: 1;" vector-effect="non-scaling-stroke"  transform=" translate(-210.19, -281.15)" d="M 233 313 C 226 311 220 302 220 294 C 220 278 204 275 195 290 C 192 296 183 300 177 299 C 168 299 168 297 178 293 C 184 291 190 282 190 275 C 190 258 226 237 240 245 C 246 248 250 259 250 268 C 249 283 248 283 236 267 C 227 255 220 253 215 259 C 212 265 213 270 218 270 C 223 270 232 281 238 295 C 244 309 249 320 247 319 C 246 319 239 316 233 313 z" stroke-linecap="round" />
</g>
		<g transform="matrix(0.13 0 0 -0.13 87.35 77.84)"  >
<path style="stroke: none; stroke-width: 1; stroke-dasharray: none; stroke-linecap: butt; stroke-dashoffset: 0; stroke-linejoin: miter; stroke-miterlimit: 4; fill: rgb(255,255,255); fill-rule: nonzero; opacity: 1;" vector-effect="non-scaling-stroke"  transform=" translate(-2152.59, -289.91)" d="M 2141 298 C 2128 262 2140 245 2156 276 C 2173 307 2174 320 2160 320 C 2154 320 2146 310 2141 298 z" stroke-linecap="round" />
</g>
		<g transform="matrix(0.13 0 0 -0.13 116.06 82.33)"  >
<path style="stroke: none; stroke-width: 1; stroke-dasharray: none; stroke-linecap: butt; stroke-dashoffset: 0; stroke-linejoin: miter; stroke-miterlimit: 4; fill: rgb(255,255,255); fill-rule: nonzero; opacity: 1;" vector-effect="non-scaling-stroke"  transform=" translate(-2367.97, -256.27)" d="M 2340 290 C 2348 285 2351 280 2345 280 C 2340 280 2342 275 2350 270 C 2362 262 2362 260 2345 259 C 2334 259 2331 256 2338 253 C 2344 251 2350 242 2350 235 C 2350 227 2355 218 2361 214 C 2369 210 2370 214 2365 229 C 2360 246 2363 250 2382 251 L 2405 251 L 2383 260 C 2370 265 2360 276 2360 285 C 2360 293 2352 300 2343 300 C 2328 300 2327 298 2340 290 z" stroke-linecap="round" />
</g>
		<g transform="matrix(0.13 0 0 -0.13 129.3 83.41)"  >
<path style="stroke: none; stroke-width: 1; stroke-dasharray: none; stroke-linecap: butt; stroke-dashoffset: 0; stroke-linejoin: miter; stroke-miterlimit: 4; fill: rgb(255,255,255); fill-rule: nonzero; opacity: 1;" vector-effect="non-scaling-stroke"  transform=" translate(-2467.22, -248.18)" d="M 2406 291 C 2402 284 2406 268 2415 253 C 2424 239 2427 231 2421 234 C 2414 239 2410 233 2410 219 C 2410 201 2413 199 2422 208 C 2429 215 2442 220 2451 220 C 2460 220 2471 228 2475 238 C 2482 254 2483 254 2489 236 C 2497 216 2530 204 2530 221 C 2530 226 2526 230 2520 230 C 2515 230 2514 237 2517 247 C 2521 258 2520 261 2512 256 C 2505 252 2500 254 2500 260 C 2500 267 2493 269 2484 266 C 2476 263 2472 264 2475 270 C 2478 276 2476 280 2469 280 C 2463 280 2460 272 2463 260 C 2466 249 2464 237 2459 234 C 2454 231 2450 235 2450 242 C 2449 265 2414 304 2406 291 z" stroke-linecap="round" />
</g>
		<g transform="matrix(0.13 0 0 -0.13 -28.01 79.44)"  >
<path style="stroke: none; stroke-width: 1; stroke-dasharray: none; stroke-linecap: butt; stroke-dashoffset: 0; stroke-linejoin: miter; stroke-miterlimit: 4; fill: rgb(255,255,255); fill-rule: nonzero; opacity: 1;" vector-effect="non-scaling-stroke"  transform=" translate(-1287.42, -277.91)" d="M 1245 280 C 1243 276 1261 273 1286 271 C 1310 270 1330 273 1330 277 C 1330 286 1250 288 1245 280 z" stroke-linecap="round" />
</g>
		<g transform="matrix(0.13 0 0 -0.13 -13.1 81.44)"  >
<path style="stroke: none; stroke-width: 1; stroke-dasharray: none; stroke-linecap: butt; stroke-dashoffset: 0; stroke-linejoin: miter; stroke-miterlimit: 4; fill: rgb(255,255,255); fill-rule: nonzero; opacity: 1;" vector-effect="non-scaling-stroke"  transform=" translate(-1399.22, -262.98)" d="M 1457 283 C 1453 280 1427 278 1398 279 C 1353 280 1343 276 1331 257 C 1317 235 1317 235 1338 253 C 1353 267 1369 270 1402 267 C 1448 262 1491 272 1473 283 C 1467 287 1460 287 1457 283 z" stroke-linecap="round" />
</g>
		<g transform="matrix(0.13 0 0 -0.13 10.86 81.54)"  >
<path style="stroke: none; stroke-width: 1; stroke-dasharray: none; stroke-linecap: butt; stroke-dashoffset: 0; stroke-linejoin: miter; stroke-miterlimit: 4; fill: rgb(255,255,255); fill-rule: nonzero; opacity: 1;" vector-effect="non-scaling-stroke"  transform=" translate(-1578.98, -262.21)" d="M 1510 278 C 1510 273 1518 270 1528 271 C 1573 275 1589 270 1584 253 C 1579 236 1579 236 1590 253 C 1596 262 1613 270 1627 270 C 1642 270 1651 273 1647 276 C 1638 286 1510 287 1510 278 z" stroke-linecap="round" />
</g>
		<g transform="matrix(0.13 0 0 -0.13 71.69 84.06)"  >
<path style="stroke: none; stroke-width: 1; stroke-dasharray: none; stroke-linecap: butt; stroke-dashoffset: 0; stroke-linejoin: miter; stroke-miterlimit: 4; fill: rgb(255,255,255); fill-rule: nonzero; opacity: 1;" vector-effect="non-scaling-stroke"  transform=" translate(-2035.14, -243.31)" d="M 2022 251 C 2024 224 2031 205 2039 202 C 2050 198 2051 205 2046 236 C 2035 294 2018 304 2022 251 z" stroke-linecap="round" />
</g>
		<g transform="matrix(0.13 0 0 -0.13 -177.46 86.09)"  >
<path style="stroke: none; stroke-width: 1; stroke-dasharray: none; stroke-linecap: butt; stroke-dashoffset: 0; stroke-linejoin: miter; stroke-miterlimit: 4; fill: rgb(255,255,255); fill-rule: nonzero; opacity: 1;" vector-effect="non-scaling-stroke"  transform=" translate(-166.53, -228.05)" d="M 112 258 C 69 237 69 221 113 220 C 123 220 128 215 125 210 C 121 204 114 202 109 205 C 104 209 100 207 100 202 C 100 196 107 189 116 186 C 138 177 140 178 134 195 C 126 216 152 214 197 190 C 231 172 234 172 246 187 C 252 197 255 211 252 220 C 247 233 245 232 242 218 C 236 189 214 198 186 240 C 172 262 159 280 157 280 C 156 279 136 270 112 258 z M 167 231 C 188 219 176 217 131 226 C 114 230 100 236 100 240 C 100 250 144 244 167 231 z" stroke-linecap="round" />
</g>
		<g transform="matrix(0.13 0 0 -0.13 -155.87 86.9)"  >
<path style="stroke: none; stroke-width: 1; stroke-dasharray: none; stroke-linecap: butt; stroke-dashoffset: 0; stroke-linejoin: miter; stroke-miterlimit: 4; fill: rgb(255,255,255); fill-rule: nonzero; opacity: 1;" vector-effect="non-scaling-stroke"  transform=" translate(-328.5, -221.97)" d="M 265 270 C 262 265 269 260 282 259 C 305 258 305 258 280 251 C 255 244 255 244 277 232 C 294 222 299 223 304 237 C 310 251 312 251 330 235 C 341 225 350 210 350 201 C 351 156 394 150 396 194 C 397 209 393 217 386 214 C 380 212 366 221 356 235 C 346 249 329 260 319 260 C 309 260 298 265 295 270 C 292 276 285 280 280 280 C 275 280 268 276 265 270 z" stroke-linecap="round" />
</g>
		<g transform="matrix(0.13 0 0 -0.13 -87.55 90.74)"  >
<path style="stroke: none; stroke-width: 1; stroke-dasharray: none; stroke-linecap: butt; stroke-dashoffset: 0; stroke-linejoin: miter; stroke-miterlimit: 4; fill: rgb(255,255,255); fill-rule: nonzero; opacity: 1;" vector-effect="non-scaling-stroke"  transform=" translate(-840.85, -193.19)" d="M 750 271 C 750 264 770 260 800 260 L 850 260 L 850 184 L 850 109 L 878 112 C 912 116 914 143 880 151 L 855 158 L 883 159 C 908 160 910 163 910 205 C 910 236 915 252 928 259 C 940 267 924 269 863 270 C 818 270 775 273 766 276 C 757 279 750 277 750 271 z M 896 224 C 893 215 890 199 890 189 C 890 178 886 171 881 175 C 865 184 871 240 888 240 C 897 240 900 234 896 224 z" stroke-linecap="round" />
</g>
		<g transform="matrix(0.13 0 0 -0.13 107.59 91.95)"  >
<path style="stroke: none; stroke-width: 1; stroke-dasharray: none; stroke-linecap: butt; stroke-dashoffset: 0; stroke-linejoin: miter; stroke-miterlimit: 4; fill: rgb(255,255,255); fill-rule: nonzero; opacity: 1;" vector-effect="non-scaling-stroke"  transform=" translate(-2304.42, -184.12)" d="M 2282 248 C 2282 230 2286 220 2296 220 C 2304 220 2310 213 2310 204 C 2310 196 2306 191 2301 194 C 2296 197 2293 189 2293 175 C 2293 161 2295 152 2299 154 C 2303 157 2304 143 2302 124 C 2299 98 2302 90 2314 90 C 2327 90 2329 101 2325 161 C 2323 200 2315 238 2309 247 C 2299 259 2299 263 2311 270 C 2321 277 2320 279 2304 278 C 2288 276 2283 269 2282 248 z" stroke-linecap="round" />
</g>
		<g transform="matrix(0.13 0 0 -0.13 164.37 95.11)"  >
<path style="stroke: none; stroke-width: 1; stroke-dasharray: none; stroke-linecap: butt; stroke-dashoffset: 0; stroke-linejoin: miter; stroke-miterlimit: 4; fill: rgb(255,255,255); fill-rule: nonzero; opacity: 1;" vector-effect="non-scaling-stroke"  transform=" translate(-2730.25, -160.45)" d="M 2610 271 C 2610 265 2614 259 2620 255 C 2625 252 2627 243 2623 235 C 2620 227 2623 220 2629 220 C 2635 220 2640 215 2640 208 C 2640 202 2648 187 2657 176 C 2667 164 2668 161 2660 168 C 2640 185 2630 183 2637 163 C 2642 149 2638 150 2621 168 C 2609 180 2596 190 2592 191 C 2588 191 2576 193 2566 195 C 2536 201 2524 188 2550 178 C 2562 173 2570 167 2567 164 C 2564 161 2541 170 2516 184 C 2477 206 2468 208 2464 195 C 2456 175 2478 150 2496 157 C 2504 160 2517 154 2524 144 C 2534 131 2541 129 2551 136 C 2584 161 2750 122 2766 85 C 2772 71 2786 64 2813 62 C 2833 60 2850 53 2850 47 C 2850 40 2854 41 2860 50 C 2867 62 2872 62 2882 52 C 2888 46 2901 40 2910 41 C 2921 41 2919 44 2905 51 C 2891 57 2901 59 2942 57 C 2998 55 2999 55 2998 83 C 2997 113 2980 121 2980 92 C 2980 76 2971 73 2916 71 C 2867 69 2851 72 2847 85 C 2843 93 2845 100 2851 100 C 2857 100 2854 107 2845 116 C 2835 126 2832 140 2836 153 C 2842 172 2841 173 2827 161 C 2815 151 2813 143 2820 130 C 2827 117 2826 109 2818 104 C 2812 100 2810 101 2813 106 C 2816 112 2815 122 2811 129 C 2805 139 2799 138 2787 125 C 2772 111 2768 111 2750 123 C 2739 130 2733 140 2738 144 C 2742 149 2734 150 2720 148 C 2705 146 2695 150 2694 158 C 2693 164 2692 178 2691 188 C 2690 203 2688 203 2679 190 C 2671 178 2670 181 2674 203 C 2678 218 2676 230 2670 230 C 2665 230 2660 225 2660 219 C 2660 211 2655 212 2645 220 C 2627 235 2632 242 2663 246 C 2675 247 2687 249 2690 250 C 2697 251 2630 280 2619 280 C 2614 280 2610 276 2610 271 z" stroke-linecap="round" />
</g>
		<g transform="matrix(0.13 0 0 -0.13 180.06 82.37)"  >
<path style="stroke: none; stroke-width: 1; stroke-dasharray: none; stroke-linecap: butt; stroke-dashoffset: 0; stroke-linejoin: miter; stroke-miterlimit: 4; fill: rgb(255,255,255); fill-rule: nonzero; opacity: 1;" vector-effect="non-scaling-stroke"  transform=" translate(-2847.95, -255.97)" d="M 2803 274 C 2806 270 2805 260 2800 251 C 2793 236 2799 234 2847 232 C 2883 230 2901 233 2898 241 C 2896 247 2890 251 2885 251 C 2879 251 2866 259 2856 268 C 2841 281 2838 282 2845 270 C 2851 258 2850 257 2839 268 C 2826 280 2791 286 2803 274 z" stroke-linecap="round" />
</g>
		<g transform="matrix(0.13 0 0 -0.13 -67.03 86.52)"  >
<path style="stroke: none; stroke-width: 1; stroke-dasharray: none; stroke-linecap: butt; stroke-dashoffset: 0; stroke-linejoin: miter; stroke-miterlimit: 4; fill: rgb(255,255,255); fill-rule: nonzero; opacity: 1;" vector-effect="non-scaling-stroke"  transform=" translate(-994.77, -224.86)" d="M 958 264 C 965 261 970 241 970 217 C 970 176 970 176 986 198 C 995 211 1008 219 1015 216 C 1023 213 1030 221 1033 236 C 1036 253 1033 260 1021 261 C 1012 261 992 263 975 265 C 959 267 951 267 958 264 z" stroke-linecap="round" />
</g>
		<g transform="matrix(0.13 0 0 -0.13 -45.31 94.74)"  >
<path style="stroke: none; stroke-width: 1; stroke-dasharray: none; stroke-linecap: butt; stroke-dashoffset: 0; stroke-linejoin: miter; stroke-miterlimit: 4; fill: rgb(255,255,255); fill-rule: nonzero; opacity: 1;" vector-effect="non-scaling-stroke"  transform=" translate(-1157.64, -163.18)" d="M 1091 261 C 1074 250 1098 210 1122 210 C 1131 210 1140 200 1143 188 C 1145 175 1148 186 1149 211 C 1150 256 1150 256 1185 256 C 1205 255 1220 250 1220 243 C 1220 236 1213 233 1203 236 C 1187 241 1186 241 1202 231 C 1221 218 1226 130 1207 130 C 1200 130 1201 126 1210 120 C 1223 111 1223 110 1209 110 C 1201 110 1183 99 1170 85 C 1149 63 1148 60 1165 60 C 1175 60 1180 63 1177 67 C 1166 77 1190 100 1211 100 C 1228 100 1230 108 1230 175 C 1230 216 1229 253 1228 257 C 1224 267 1106 270 1091 261 z" stroke-linecap="round" />
</g>
		<g transform="matrix(0.13 0 0 -0.13 56.33 87.29)"  >
<path style="stroke: none; stroke-width: 1; stroke-dasharray: none; stroke-linecap: butt; stroke-dashoffset: 0; stroke-linejoin: miter; stroke-miterlimit: 4; fill: rgb(255,255,255); fill-rule: nonzero; opacity: 1;" vector-effect="non-scaling-stroke"  transform=" translate(-1920, -219.08)" d="M 1908 263 C 1870 259 1870 258 1870 214 C 1870 190 1872 170 1874 170 C 1891 170 1926 199 1928 215 C 1933 251 1939 260 1955 254 C 1963 251 1970 253 1970 259 C 1970 265 1964 269 1958 268 C 1951 267 1928 265 1908 263 z" stroke-linecap="round" />
</g>
		<g transform="matrix(0.13 0 0 -0.13 169.71 86.63)"  >
<path style="stroke: none; stroke-width: 1; stroke-dasharray: none; stroke-linecap: butt; stroke-dashoffset: 0; stroke-linejoin: miter; stroke-miterlimit: 4; fill: rgb(255,255,255); fill-rule: nonzero; opacity: 1;" vector-effect="non-scaling-stroke"  transform=" translate(-2770.32, -224.03)" d="M 2746 251 C 2743 246 2746 239 2752 237 C 2762 233 2762 229 2751 222 C 2744 217 2741 207 2744 201 C 2755 184 2770 188 2763 206 C 2758 220 2760 221 2781 211 C 2801 201 2802 201 2790 212 C 2782 219 2775 231 2775 239 C 2775 256 2754 265 2746 251 z" stroke-linecap="round" />
</g>
		<g transform="matrix(0.13 0 0 -0.13 1.66 91.26)"  >
<path style="stroke: none; stroke-width: 1; stroke-dasharray: none; stroke-linecap: butt; stroke-dashoffset: 0; stroke-linejoin: miter; stroke-miterlimit: 4; fill: rgb(255,255,255); fill-rule: nonzero; opacity: 1;" vector-effect="non-scaling-stroke"  transform=" translate(-1509.93, -189.32)" d="M 1490 239 C 1490 234 1486 231 1482 234 C 1477 237 1467 229 1460 216 C 1428 155 1517 96 1555 153 C 1578 188 1566 226 1528 239 C 1490 252 1490 252 1490 239 z M 1535 195 C 1535 184 1540 172 1545 168 C 1551 164 1536 160 1513 160 C 1475 160 1472 162 1478 183 C 1488 223 1535 233 1535 195 z" stroke-linecap="round" />
</g>
		<g transform="matrix(0.13 0 0 -0.13 -117.44 93.15)"  >
<path style="stroke: none; stroke-width: 1; stroke-dasharray: none; stroke-linecap: butt; stroke-dashoffset: 0; stroke-linejoin: miter; stroke-miterlimit: 4; fill: rgb(255,255,255); fill-rule: nonzero; opacity: 1;" vector-effect="non-scaling-stroke"  transform=" translate(-616.67, -175.08)" d="M 607 233 C 604 228 600 196 597 160 C 592 100 592 98 603 132 C 610 152 621 175 628 182 C 642 196 644 234 630 225 C 624 221 622 214 625 209 C 629 204 626 200 619 200 C 613 200 610 208 613 220 C 618 240 615 247 607 233 z" stroke-linecap="round" />
</g>
		<g transform="matrix(0.13 0 0 -0.13 39.6 89.83)"  >
<path style="stroke: none; stroke-width: 1; stroke-dasharray: none; stroke-linecap: butt; stroke-dashoffset: 0; stroke-linejoin: miter; stroke-miterlimit: 4; fill: rgb(255,255,255); fill-rule: nonzero; opacity: 1;" vector-effect="non-scaling-stroke"  transform=" translate(-1794.5, -200)" d="M 1789 228 C 1789 221 1787 203 1785 188 C 1783 172 1786 160 1791 160 C 1796 160 1800 168 1801 178 C 1801 187 1803 205 1804 218 C 1806 230 1803 240 1798 240 C 1794 240 1790 234 1789 228 z" stroke-linecap="round" />
</g>
		<g transform="matrix(0.13 0 0 -0.13 31.04 87.7)"  >
<path style="stroke: none; stroke-width: 1; stroke-dasharray: none; stroke-linecap: butt; stroke-dashoffset: 0; stroke-linejoin: miter; stroke-miterlimit: 4; fill: rgb(255,255,255); fill-rule: nonzero; opacity: 1;" vector-effect="non-scaling-stroke"  transform=" translate(-1730.28, -216.02)" d="M 1705 214 C 1717 205 1726 203 1728 210 C 1731 217 1739 216 1753 209 C 1774 199 1774 199 1756 214 C 1745 223 1725 230 1711 230 C 1686 229 1686 229 1705 214 z" stroke-linecap="round" />
</g>
		<g transform="matrix(0.13 0 0 -0.13 -156.99 90.15)"  >
<path style="stroke: none; stroke-width: 1; stroke-dasharray: none; stroke-linecap: butt; stroke-dashoffset: 0; stroke-linejoin: miter; stroke-miterlimit: 4; fill: rgb(255,255,255); fill-rule: nonzero; opacity: 1;" vector-effect="non-scaling-stroke"  transform=" translate(-320.11, -197.58)" d="M 317 209 C 308 203 300 195 300 190 C 300 174 330 179 337 195 C 345 216 338 220 317 209 z" stroke-linecap="round" />
</g>
		<g transform="matrix(0.13 0 0 -0.13 185.44 93.7)"  >
<path style="stroke: none; stroke-width: 1; stroke-dasharray: none; stroke-linecap: butt; stroke-dashoffset: 0; stroke-linejoin: miter; stroke-miterlimit: 4; fill: rgb(255,255,255); fill-rule: nonzero; opacity: 1;" vector-effect="non-scaling-stroke"  transform=" translate(-2888.28, -171.03)" d="M 2820 197 C 2798 189 2784 178 2783 167 C 2782 150 2784 150 2801 169 C 2812 181 2824 190 2828 190 C 2845 189 2909 163 2926 150 C 2937 141 2941 140 2936 148 C 2931 156 2936 160 2949 160 C 2961 160 2969 155 2968 149 C 2966 143 2970 136 2976 133 C 2983 131 2990 142 2992 159 C 2996 186 2994 188 2978 179 C 2964 171 2954 172 2942 182 C 2930 192 2928 192 2934 182 C 2940 172 2935 171 2913 176 C 2873 186 2866 191 2881 201 C 2902 214 2863 211 2820 197 z" stroke-linecap="round" />
</g>
		<g transform="matrix(0.13 0 0 -0.13 -174.71 95.92)"  >
<path style="stroke: none; stroke-width: 1; stroke-dasharray: none; stroke-linecap: butt; stroke-dashoffset: 0; stroke-linejoin: miter; stroke-miterlimit: 4; fill: rgb(255,255,255); fill-rule: nonzero; opacity: 1;" vector-effect="non-scaling-stroke"  transform=" translate(-187.2, -154.32)" d="M 150 187 C 150 178 155 168 160 165 C 166 161 170 153 169 147 C 164 108 195 104 218 140 C 228 156 227 158 210 155 C 198 153 183 161 170 177 C 156 195 150 198 150 187 z" stroke-linecap="round" />
</g>
		<g transform="matrix(0.13 0 0 -0.13 -63.7 97.69)"  >
<path style="stroke: none; stroke-width: 1; stroke-dasharray: none; stroke-linecap: butt; stroke-dashoffset: 0; stroke-linejoin: miter; stroke-miterlimit: 4; fill: rgb(255,255,255); fill-rule: nonzero; opacity: 1;" vector-effect="non-scaling-stroke"  transform=" translate(-1019.76, -141.09)" d="M 1049 188 C 1048 181 1049 168 1050 161 C 1051 148 1049 148 1036 159 C 1027 167 1017 170 1013 166 C 1010 163 1013 160 1020 160 C 1039 160 1023 147 1000 143 C 988 141 980 146 980 155 C 980 163 976 170 970 170 C 956 170 957 157 972 142 C 981 133 981 130 972 130 C 965 130 960 126 960 121 C 960 106 1014 112 1028 129 C 1040 143 1041 141 1035 115 C 1031 99 1032 88 1036 92 C 1040 96 1049 95 1057 89 C 1066 80 1070 81 1070 89 C 1070 95 1066 100 1060 100 C 1044 100 1049 132 1068 146 C 1083 158 1083 161 1070 170 C 1059 177 1059 180 1068 180 C 1075 180 1078 185 1075 190 C 1066 204 1050 202 1049 188 z" stroke-linecap="round" />
</g>
		<g transform="matrix(0.13 0 0 -0.13 132.54 100.85)"  >
<path style="stroke: none; stroke-width: 1; stroke-dasharray: none; stroke-linecap: butt; stroke-dashoffset: 0; stroke-linejoin: miter; stroke-miterlimit: 4; fill: rgb(255,255,255); fill-rule: nonzero; opacity: 1;" vector-effect="non-scaling-stroke"  transform=" translate(-2491.54, -117.36)" d="M 2356 181 C 2367 171 2386 159 2397 156 C 2425 147 2433 124 2415 106 C 2407 98 2400 83 2400 73 C 2400 58 2402 57 2410 70 C 2422 89 2423 74 2411 51 C 2402 35 2407 34 2473 35 C 2647 39 2640 38 2640 63 C 2640 85 2637 86 2553 85 C 2504 85 2459 81 2453 77 C 2446 72 2439 72 2439 77 C 2436 89 2434 122 2432 156 C 2430 190 2403 210 2388 188 C 2380 178 2377 178 2373 188 C 2371 194 2361 200 2352 200 C 2339 200 2340 197 2356 181 z" stroke-linecap="round" />
</g>
		<g transform="matrix(0.13 0 0 -0.13 -193.22 95.5)"  >
<path style="stroke: none; stroke-width: 1; stroke-dasharray: none; stroke-linecap: butt; stroke-dashoffset: 0; stroke-linejoin: miter; stroke-miterlimit: 4; fill: rgb(255,255,255); fill-rule: nonzero; opacity: 1;" vector-effect="non-scaling-stroke"  transform=" translate(-48.37, -157.46)" d="M 60 180 C 60 175 52 170 43 170 C 29 169 31 166 50 155 C 71 142 72 141 55 142 C 19 144 0 140 0 130 C 0 119 54 127 85 143 C 98 150 100 155 92 158 C 86 160 80 168 80 176 C 80 184 76 190 70 190 C 65 190 60 186 60 180 z" stroke-linecap="round" />
</g>
		<g transform="matrix(0.13 0 0 -0.13 15.61 102.68)"  >
<path style="stroke: none; stroke-width: 1; stroke-dasharray: none; stroke-linecap: butt; stroke-dashoffset: 0; stroke-linejoin: miter; stroke-miterlimit: 4; fill: rgb(255,255,255); fill-rule: nonzero; opacity: 1;" vector-effect="non-scaling-stroke"  transform=" translate(-1614.54, -103.64)" d="M 1647 184 C 1644 181 1646 165 1650 149 C 1656 130 1655 120 1648 120 C 1642 120 1640 108 1643 91 C 1648 65 1647 63 1623 68 C 1607 71 1599 69 1603 62 C 1607 57 1603 50 1595 46 C 1587 43 1580 45 1580 51 C 1580 57 1576 58 1570 55 C 1565 52 1560 42 1560 34 C 1560 14 1629 15 1636 35 C 1640 43 1648 50 1655 50 C 1664 50 1668 69 1669 114 C 1670 173 1662 198 1647 184 z" stroke-linecap="round" />
</g>
		<g transform="matrix(0.13 0 0 -0.13 31.54 97.83)"  >
<path style="stroke: none; stroke-width: 1; stroke-dasharray: none; stroke-linecap: butt; stroke-dashoffset: 0; stroke-linejoin: miter; stroke-miterlimit: 4; fill: rgb(255,255,255); fill-rule: nonzero; opacity: 1;" vector-effect="non-scaling-stroke"  transform=" translate(-1734.09, -140)" d="M 1696 159 C 1684 99 1688 90 1720 90 C 1737 90 1750 95 1750 100 C 1750 106 1758 110 1767 110 C 1776 110 1781 113 1777 116 C 1774 119 1755 122 1734 122 C 1709 122 1701 125 1711 131 C 1719 136 1720 140 1714 140 C 1707 140 1705 151 1708 165 C 1710 179 1710 190 1707 190 C 1705 190 1700 176 1696 159 z" stroke-linecap="round" />
</g>
		<g transform="matrix(0.13 0 0 -0.13 -183.87 97.7)"  >
<path style="stroke: none; stroke-width: 1; stroke-dasharray: none; stroke-linecap: butt; stroke-dashoffset: 0; stroke-linejoin: miter; stroke-miterlimit: 4; fill: rgb(255,255,255); fill-rule: nonzero; opacity: 1;" vector-effect="non-scaling-stroke"  transform=" translate(-118.45, -141)" d="M 108 168 C 120 162 130 153 130 148 C 130 143 125 142 118 146 C 111 150 110 149 114 142 C 118 135 116 130 111 130 C 105 130 100 125 100 119 C 100 111 106 112 117 121 C 132 133 133 133 127 116 C 120 100 122 99 136 111 C 145 118 148 126 142 128 C 136 130 133 137 136 145 C 141 157 112 181 93 179 C 89 179 95 174 108 168 z" stroke-linecap="round" />
</g>
		<g transform="matrix(0.13 0 0 -0.13 67.38 103.14)"  >
<path style="stroke: none; stroke-width: 1; stroke-dasharray: none; stroke-linecap: butt; stroke-dashoffset: 0; stroke-linejoin: miter; stroke-miterlimit: 4; fill: rgb(255,255,255); fill-rule: nonzero; opacity: 1;" vector-effect="non-scaling-stroke"  transform=" translate(-2002.87, -100.21)" d="M 1967 174 C 1964 171 1966 160 1973 149 C 1979 139 1981 127 1977 123 C 1972 119 1965 121 1961 129 C 1954 139 1951 138 1947 126 C 1943 117 1946 110 1952 110 C 1959 110 1957 103 1948 93 C 1939 83 1930 66 1927 55 C 1922 36 1922 36 1915 57 C 1911 70 1904 77 1899 74 C 1894 71 1892 63 1896 57 C 1899 50 1894 54 1886 64 C 1863 92 1866 101 1895 94 C 1911 90 1920 92 1920 100 C 1920 107 1913 110 1905 106 C 1896 103 1890 106 1890 115 C 1890 123 1893 129 1898 129 C 1922 125 1933 131 1922 142 C 1914 150 1907 150 1896 141 C 1888 134 1875 132 1869 136 C 1860 141 1859 138 1863 127 C 1866 118 1863 104 1855 96 C 1842 84 1843 81 1856 76 C 1868 72 1869 66 1860 50 C 1852 34 1852 28 1863 24 C 1887 15 2033 24 2037 35 C 2039 41 2031 46 2019 47 C 1993 49 1994 48 1987 90 L 1980 125 L 2001 101 C 2016 82 2018 75 2008 69 C 1999 63 2001 60 2016 60 C 2027 60 2040 56 2046 51 C 2060 37 2140 27 2140 39 C 2140 44 2121 51 2098 53 L 2055 57 L 2098 58 C 2129 60 2140 64 2140 76 C 2140 84 2145 88 2150 85 C 2156 82 2160 84 2160 89 C 2160 95 2147 100 2130 100 C 2114 100 2100 95 2100 89 C 2100 84 2106 82 2113 86 C 2122 91 2122 90 2113 80 C 2107 73 2091 70 2078 73 C 2065 77 2052 78 2048 77 C 2036 73 1989 124 1994 136 C 1997 143 1992 151 1984 154 C 1975 157 1972 164 1975 170 C 1982 181 1977 184 1967 174 z" stroke-linecap="round" />
</g>
		<g transform="matrix(0.13 0 0 -0.13 71 97.17)"  >
<path style="stroke: none; stroke-width: 1; stroke-dasharray: none; stroke-linecap: butt; stroke-dashoffset: 0; stroke-linejoin: miter; stroke-miterlimit: 4; fill: rgb(255,255,255); fill-rule: nonzero; opacity: 1;" vector-effect="non-scaling-stroke"  transform=" translate(-2030, -145)" d="M 2010 170 C 2010 154 2033 110 2042 110 C 2055 110 2052 122 2033 142 C 2017 160 2017 160 2033 154 C 2045 150 2050 153 2050 164 C 2050 173 2042 180 2030 180 C 2019 180 2010 176 2010 170 z" stroke-linecap="round" />
</g>
		<g transform="matrix(0.13 0 0 -0.13 188.54 99.44)"  >
<path style="stroke: none; stroke-width: 1; stroke-dasharray: none; stroke-linecap: butt; stroke-dashoffset: 0; stroke-linejoin: miter; stroke-miterlimit: 4; fill: rgb(255,255,255); fill-rule: nonzero; opacity: 1;" vector-effect="non-scaling-stroke"  transform=" translate(-2911.58, -127.91)" d="M 2861 143 C 2867 125 2876 110 2882 110 C 2887 110 2888 105 2884 98 C 2879 90 2882 89 2894 93 C 2904 97 2914 100 2917 100 C 2921 100 2915 109 2905 120 C 2894 132 2892 140 2899 140 C 2905 140 2916 129 2922 115 C 2933 90 2976 78 2968 102 C 2962 119 2901 152 2889 144 C 2883 141 2872 146 2864 156 C 2852 173 2851 171 2861 143 z" stroke-linecap="round" />
</g>
		<g transform="matrix(0.13 0 0 -0.13 -132.14 103.89)"  >
<path style="stroke: none; stroke-width: 1; stroke-dasharray: none; stroke-linecap: butt; stroke-dashoffset: 0; stroke-linejoin: miter; stroke-miterlimit: 4; fill: rgb(255,255,255); fill-rule: nonzero; opacity: 1;" vector-effect="non-scaling-stroke"  transform=" translate(-506.47, -94.56)" d="M 256 145 C 275 131 275 131 253 130 C 241 130 228 125 224 119 C 219 111 225 109 244 112 C 264 116 270 113 270 99 C 270 89 266 78 260 75 C 254 71 253 76 257 85 C 261 98 258 101 245 99 C 235 97 222 82 217 67 C 208 38 215 17 228 37 C 232 43 253 50 275 52 C 311 55 315 58 323 93 C 328 113 336 130 340 130 C 345 130 344 115 339 98 C 334 80 330 64 330 62 C 330 60 354 59 383 60 C 453 63 462 62 455 50 C 451 44 440 42 429 45 C 419 49 404 48 396 43 C 388 39 476 35 591 34 C 706 34 800 37 800 41 C 800 47 715 53 603 54 C 556 55 550 57 550 76 C 550 106 528 123 511 107 C 500 97 500 100 509 120 C 520 143 520 144 506 126 C 498 116 489 104 488 100 C 486 96 464 90 437 87 C 411 84 385 78 380 75 C 375 72 373 76 376 84 C 379 92 388 101 396 104 C 404 107 410 114 410 120 C 410 128 404 128 390 120 C 379 114 370 113 370 118 C 370 123 380 132 393 138 C 411 148 404 149 348 148 C 310 147 277 150 273 153 C 270 157 260 160 251 160 C 240 160 241 157 256 145 z M 527 93 C 523 90 526 80 532 72 C 542 61 540 59 520 62 C 507 63 495 71 492 79 C 489 87 492 90 498 86 C 504 83 511 84 515 90 C 518 95 524 100 527 100 C 531 100 530 97 527 93 z" stroke-linecap="round" />
</g>
		<g transform="matrix(0.13 0 0 -0.13 -5.72 99.23)"  >
<path style="stroke: none; stroke-width: 1; stroke-dasharray: none; stroke-linecap: butt; stroke-dashoffset: 0; stroke-linejoin: miter; stroke-miterlimit: 4; fill: rgb(255,255,255); fill-rule: nonzero; opacity: 1;" vector-effect="non-scaling-stroke"  transform=" translate(-1454.6, -129.52)" d="M 1432 145 C 1434 131 1430 125 1418 126 C 1408 127 1404 122 1407 113 C 1412 101 1415 101 1429 114 C 1443 127 1448 127 1464 114 C 1475 106 1491 100 1499 100 C 1508 101 1502 108 1485 116 C 1469 125 1449 140 1442 149 C 1430 163 1429 163 1432 145 z" stroke-linecap="round" />
</g>
		<g transform="matrix(0.13 0 0 -0.13 -22.81 100.8)"  >
<path style="stroke: none; stroke-width: 1; stroke-dasharray: none; stroke-linecap: butt; stroke-dashoffset: 0; stroke-linejoin: miter; stroke-miterlimit: 4; fill: rgb(255,255,255); fill-rule: nonzero; opacity: 1;" vector-effect="non-scaling-stroke"  transform=" translate(-1326.4, -117.78)" d="M 1294 142 C 1299 134 1293 130 1278 129 C 1259 128 1258 127 1274 123 C 1284 120 1302 109 1314 99 C 1325 88 1336 84 1338 90 C 1340 95 1346 100 1352 100 C 1363 100 1390 125 1390 135 C 1390 138 1377 132 1362 122 C 1342 107 1330 104 1317 111 C 1307 117 1302 125 1305 130 C 1308 135 1305 142 1299 146 C 1291 150 1290 149 1294 142 z" stroke-linecap="round" />
</g>
		<g transform="matrix(0.13 0 0 -0.13 117.35 102.56)"  >
<path style="stroke: none; stroke-width: 1; stroke-dasharray: none; stroke-linecap: butt; stroke-dashoffset: 0; stroke-linejoin: miter; stroke-miterlimit: 4; fill: rgb(255,255,255); fill-rule: nonzero; opacity: 1;" vector-effect="non-scaling-stroke"  transform=" translate(-2377.64, -104.56)" d="M 2372 138 C 2366 131 2360 112 2358 96 C 2356 74 2360 67 2373 64 C 2388 62 2391 66 2386 83 C 2383 94 2386 110 2392 117 C 2399 126 2400 134 2393 141 C 2386 148 2380 147 2372 138 z" stroke-linecap="round" />
</g>
		<g transform="matrix(0.13 0 0 -0.13 -53.67 103.04)"  >
<path style="stroke: none; stroke-width: 1; stroke-dasharray: none; stroke-linecap: butt; stroke-dashoffset: 0; stroke-linejoin: miter; stroke-miterlimit: 4; fill: rgb(255,255,255); fill-rule: nonzero; opacity: 1;" vector-effect="non-scaling-stroke"  transform=" translate(-1094.98, -100.96)" d="M 1075 131 C 1072 126 1074 119 1080 115 C 1094 106 1093 70 1078 70 C 1072 70 1070 67 1073 64 C 1077 60 1086 63 1095 70 C 1106 79 1107 87 1100 100 C 1086 126 1087 130 1107 123 C 1118 119 1121 120 1116 128 C 1107 142 1083 144 1075 131 z" stroke-linecap="round" />
</g>
		<g transform="matrix(0.13 0 0 -0.13 -107.94 103.51)"  >
<path style="stroke: none; stroke-width: 1; stroke-dasharray: none; stroke-linecap: butt; stroke-dashoffset: 0; stroke-linejoin: miter; stroke-miterlimit: 4; fill: rgb(255,255,255); fill-rule: nonzero; opacity: 1;" vector-effect="non-scaling-stroke"  transform=" translate(-687.93, -97.41)" d="M 568 106 C 565 92 565 78 569 76 C 572 74 628 69 693 66 C 799 59 810 60 810 75 C 810 86 805 90 795 86 C 787 83 780 85 780 90 C 780 96 772 100 763 100 C 749 100 748 98 758 91 C 768 85 766 81 750 77 C 733 73 730 75 734 87 C 740 101 738 101 724 89 C 711 78 706 78 703 88 C 700 94 689 100 679 100 C 668 100 662 96 665 90 C 668 85 666 80 661 80 C 655 80 650 85 650 91 C 650 97 645 98 638 93 C 615 79 595 85 584 109 L 573 133 L 568 106 z" stroke-linecap="round" />
</g>
		<g transform="matrix(0.13 0 0 -0.13 -4.72 104.69)"  >
<path style="stroke: none; stroke-width: 1; stroke-dasharray: none; stroke-linecap: butt; stroke-dashoffset: 0; stroke-linejoin: miter; stroke-miterlimit: 4; fill: rgb(255,255,255); fill-rule: nonzero; opacity: 1;" vector-effect="non-scaling-stroke"  transform=" translate(-1462.07, -88.55)" d="M 1566 118 C 1570 111 1569 110 1562 114 C 1555 118 1542 116 1533 111 C 1518 102 1520 101 1545 100 C 1571 99 1573 98 1557 89 C 1546 83 1524 81 1507 84 C 1479 90 1477 89 1494 77 C 1511 64 1510 63 1482 68 C 1464 70 1452 75 1455 79 C 1457 83 1453 87 1445 87 C 1437 87 1433 82 1437 77 C 1440 72 1433 71 1421 75 C 1408 79 1392 76 1383 68 C 1374 61 1369 60 1373 66 C 1377 73 1371 76 1355 74 C 1341 73 1328 76 1324 81 C 1315 97 1300 91 1300 71 C 1300 53 1309 51 1421 48 C 1542 45 1568 49 1556 68 C 1549 80 1572 90 1605 90 C 1624 90 1627 94 1622 112 C 1618 128 1615 130 1611 119 C 1603 100 1580 96 1580 115 C 1580 123 1575 130 1569 130 C 1564 130 1562 125 1566 118 z" stroke-linecap="round" />
</g>
		<g transform="matrix(0.13 0 0 -0.13 146.07 101.08)"  >
<path style="stroke: none; stroke-width: 1; stroke-dasharray: none; stroke-linecap: butt; stroke-dashoffset: 0; stroke-linejoin: miter; stroke-miterlimit: 4; fill: rgb(255,255,255); fill-rule: nonzero; opacity: 1;" vector-effect="non-scaling-stroke"  transform=" translate(-2592.99, -115.65)" d="M 2580 120 C 2550 114 2549 112 2572 111 C 2586 111 2605 107 2614 104 C 2625 100 2630 103 2630 114 C 2630 123 2627 129 2623 129 C 2618 128 2599 124 2580 120 z" stroke-linecap="round" />
</g>
		<g transform="matrix(0.13 0 0 -0.13 41.3 105.13)"  >
<path style="stroke: none; stroke-width: 1; stroke-dasharray: none; stroke-linecap: butt; stroke-dashoffset: 0; stroke-linejoin: miter; stroke-miterlimit: 4; fill: rgb(255,255,255); fill-rule: nonzero; opacity: 1;" vector-effect="non-scaling-stroke"  transform=" translate(-1807.22, -85.3)" d="M 1790 105 C 1790 97 1786 90 1780 90 C 1775 90 1770 80 1770 69 C 1770 50 1774 48 1801 54 C 1818 57 1837 60 1842 60 C 1847 60 1844 67 1836 76 C 1827 84 1822 95 1825 100 C 1828 104 1823 111 1814 114 C 1792 123 1790 122 1790 105 z" stroke-linecap="round" />
</g>
		<g transform="matrix(0.13 0 0 -0.13 -63.73 107.86)"  >
<path style="stroke: none; stroke-width: 1; stroke-dasharray: none; stroke-linecap: butt; stroke-dashoffset: 0; stroke-linejoin: miter; stroke-miterlimit: 4; fill: rgb(255,255,255); fill-rule: nonzero; opacity: 1;" vector-effect="non-scaling-stroke"  transform=" translate(-1019.5, -64.82)" d="M 916 103 C 913 99 891 96 868 96 C 827 95 825 93 822 63 L 819 30 L 932 29 C 994 29 1084 27 1133 25 C 1187 23 1220 26 1220 32 C 1220 38 1206 40 1183 35 C 1162 31 1148 32 1152 36 C 1160 43 1132 69 1115 70 C 1110 70 1112 65 1120 60 C 1132 52 1130 50 1110 52 C 1096 52 1041 50 988 46 C 921 41 890 42 890 49 C 890 62 890 61 990 61 C 1072 61 1054 77 970 79 C 941 80 930 83 938 89 C 949 96 949 98 937 103 C 929 106 919 106 916 103 z" stroke-linecap="round" />
</g>
		<g transform="matrix(0.13 0 0 -0.13 -35.01 105.88)"  >
<path style="stroke: none; stroke-width: 1; stroke-dasharray: none; stroke-linecap: butt; stroke-dashoffset: 0; stroke-linejoin: miter; stroke-miterlimit: 4; fill: rgb(255,255,255); fill-rule: nonzero; opacity: 1;" vector-effect="non-scaling-stroke"  transform=" translate(-1234.94, -79.67)" d="M 1265 100 C 1268 95 1263 90 1253 90 C 1238 90 1237 88 1250 80 C 1262 72 1261 70 1243 70 C 1230 70 1220 75 1220 80 C 1220 86 1213 90 1205 90 C 1181 90 1187 63 1213 56 C 1264 43 1280 48 1280 80 C 1280 97 1275 110 1269 110 C 1264 110 1262 106 1265 100 z" stroke-linecap="round" />
</g>
		<g transform="matrix(0.13 0 0 -0.13 -185.72 107.69)"  >
<path style="stroke: none; stroke-width: 1; stroke-dasharray: none; stroke-linecap: butt; stroke-dashoffset: 0; stroke-linejoin: miter; stroke-miterlimit: 4; fill: rgb(255,255,255); fill-rule: nonzero; opacity: 1;" vector-effect="non-scaling-stroke"  transform=" translate(-104.62, -66.04)" d="M 54 85 C 50 77 38 70 26 70 C 11 70 4 63 3 50 C 1 31 7 30 95 31 C 177 32 189 34 193 51 C 196 61 193 71 186 74 C 180 76 184 79 194 79 C 215 80 208 93 185 96 C 177 97 167 88 164 75 C 160 60 152 53 142 55 C 133 57 122 59 118 59 C 114 60 113 68 115 78 C 118 87 114 82 106 65 L 91 35 L 90 68 C 90 102 65 114 54 85 z" stroke-linecap="round" />
</g>
		<g transform="matrix(0.13 0 0 -0.13 102.33 105.64)"  >
<path style="stroke: none; stroke-width: 1; stroke-dasharray: none; stroke-linecap: butt; stroke-dashoffset: 0; stroke-linejoin: miter; stroke-miterlimit: 4; fill: rgb(255,255,255); fill-rule: nonzero; opacity: 1;" vector-effect="non-scaling-stroke"  transform=" translate(-2265, -81.42)" d="M 2220 83 C 2220 69 2230 65 2265 63 C 2290 62 2310 66 2310 71 C 2310 76 2301 80 2290 80 C 2279 80 2270 85 2270 90 C 2270 96 2259 100 2245 100 C 2228 100 2220 95 2220 83 z" stroke-linecap="round" />
</g>
		<g transform="matrix(0.13 0 0 -0.13 161.67 107.83)"  >
<path style="stroke: none; stroke-width: 1; stroke-dasharray: none; stroke-linecap: butt; stroke-dashoffset: 0; stroke-linejoin: miter; stroke-miterlimit: 4; fill: rgb(255,255,255); fill-rule: nonzero; opacity: 1;" vector-effect="non-scaling-stroke"  transform=" translate(-2710, -65.05)" d="M 2650 81 C 2650 49 2664 40 2716 40 C 2757 40 2770 44 2770 55 C 2770 63 2763 70 2755 70 C 2747 70 2740 75 2740 80 C 2740 86 2732 90 2723 90 C 2711 90 2709 87 2717 82 C 2724 78 2725 69 2721 62 C 2715 53 2709 55 2695 70 C 2676 91 2650 97 2650 81 z" stroke-linecap="round" />
</g>
		<g transform="matrix(0.13 0 0 -0.13 28.33 111.25)"  >
<path style="stroke: none; stroke-width: 1; stroke-dasharray: none; stroke-linecap: butt; stroke-dashoffset: 0; stroke-linejoin: miter; stroke-miterlimit: 4; fill: rgb(255,255,255); fill-rule: nonzero; opacity: 1;" vector-effect="non-scaling-stroke"  transform=" translate(-1710, -39.38)" d="M 1730 50 C 1722 45 1705 40 1693 40 C 1680 40 1670 36 1670 30 C 1670 25 1688 20 1710 20 C 1743 20 1750 23 1750 40 C 1750 63 1750 63 1730 50 z" stroke-linecap="round" />
</g>
		<g transform="matrix(0.13 0 0 -0.13 107.93 111.47)"  >
<path style="stroke: none; stroke-width: 1; stroke-dasharray: none; stroke-linecap: butt; stroke-dashoffset: 0; stroke-linejoin: miter; stroke-miterlimit: 4; fill: rgb(255,255,255); fill-rule: nonzero; opacity: 1;" vector-effect="non-scaling-stroke"  transform=" translate(-2306.96, -37.73)" d="M 2225 40 C 2228 35 2268 30 2312 30 C 2357 30 2391 32 2389 35 C 2379 45 2219 50 2225 40 z" stroke-linecap="round" />
</g>
</g>
</g>
</svg>