<svg width="38" height="38" viewBox="0 0 38 38" fill="none" xmlns="http://www.w3.org/2000/svg">
<path d="M3.706 31.3757C6.069 30.8199 8.504 30.1948 10.251 30.1948C10.934 30.1948 11.512 30.2908 11.939 30.5226C13.413 31.3253 14.257 34.5771 15.184 37.6494C16.421 37.8727 17.694 38 19 38C20.306 38 21.579 37.8727 22.816 37.6504C23.742 34.5781 24.587 31.3263 26.06 30.5245C26.487 30.2917 27.065 30.1967 27.748 30.1967C29.495 30.1967 31.931 30.8218 34.293 31.3775C35.898 29.6219 37.158 27.587 37.999 25.3612C35.655 23.0755 33.127 20.7148 33.127 19.0019C33.127 17.2881 35.655 14.9283 37.999 12.6426C37.158 10.4168 35.898 8.38185 34.293 6.62625C31.93 7.182 29.495 7.8071 27.748 7.8071C27.065 7.8071 26.487 7.71115 26.06 7.47935C24.586 6.6766 23.742 3.42475 22.815 0.35245C21.579 0.1273 20.306 0 19 0C17.694 0 16.421 0.1273 15.184 0.3496C14.258 3.4219 13.413 6.67375 11.939 7.47555C11.512 7.7083 10.934 7.8033 10.251 7.8033C8.504 7.8033 6.068 7.1782 3.706 6.62245C2.101 8.37995 0.841 10.4139 0 12.6407C2.344 14.9264 4.872 17.2862 4.872 19C4.872 20.7138 2.345 23.0736 0 25.3593C0.841 27.5851 2.101 29.6201 3.706 31.3757ZM13 19C13 15.8517 15.686 13.3 19 13.3C22.314 13.3 25 15.8517 25 19C25 22.1483 22.314 24.7 19 24.7C15.686 24.7 13 22.1483 13 19Z" fill="white"/>
</svg>
